SplineFontDB: 3.0
FontName: GOST2930-62
FullName: GOST 2930-62
FamilyName: GOST 2930-62
Weight: Book
Copyright: 
Version: 1.00
ItalicAngle: 0
UnderlinePosition: -200
UnderlineWidth: 100
Ascent: 800
Descent: 200
InvalidEm: 0
sfntRevision: 0x00010000
LayerCount: 2
Layer: 0 0 "+BBcEMAQ0BD0EOAQ5 +BD8EOwQwBD0A" 1
Layer: 1 0 "+BB8ENQRABDUENAQ9BDgEOQAA +BD8EOwQwBD0A" 0
XUID: [1021 200 1631105240 8228]
StyleMap: 0x0000
FSType: 8
OS2Version: 1
OS2_WeightWidthSlopeOnly: 0
OS2_UseTypoMetrics: 0
CreationTime: 1115562651
ModificationTime: 1506154953
PfmFamily: 17
TTFWeight: 400
TTFWidth: 5
LineGap: 467
VLineGap: 0
Panose: 2 0 0 0 0 0 0 0 0 0
OS2TypoAscent: 800
OS2TypoAOffset: 0
OS2TypoDescent: -300
OS2TypoDOffset: 0
OS2TypoLinegap: 137
OS2WinAscent: 1200
OS2WinAOffset: 0
OS2WinDescent: 300
OS2WinDOffset: 0
HheadAscent: 1000
HheadAOffset: 0
HheadDescent: 0
HheadDOffset: 0
OS2SubXSize: 0
OS2SubYSize: 0
OS2SubXOff: 0
OS2SubYOff: 0
OS2SupXSize: 0
OS2SupYSize: 0
OS2SupXOff: 0
OS2SupYOff: 0
OS2StrikeYSize: 67
OS2StrikeYPos: 400
OS2Vendor: 'GOST'
OS2CodePages: 4000001f.d6030000
OS2UnicodeRanges: a00002af.500078fb.00000000.00000000
MarkAttachClasses: 1
DEI: 91125
ShortTable: maxp 16
  1
  0
  203
  72
  5
  0
  0
  2
  16
  47
  66
  0
  1036
  0
  0
  0
EndShort
LangName: 1033 "" "" "Regular"
Encoding: UnicodeBmp
UnicodeInterp: none
NameList: AGL For New Fonts
DisplaySize: -48
AntiAlias: 1
FitToEm: 0
WinInfo: 0 27 9
BeginPrivate: 0
EndPrivate
BeginChars: 65537 178

StartChar: .notdef
Encoding: 65536 -1 0
Width: 802
VWidth: 1365
Flags: HW
LayerCount: 2
Fore
SplineSet
0 0 m 1
 0 853 l 1
 682 853 l 1
 682 0 l 1
 0 0 l 1
21 21 m 1
 661 21 l 1
 661 832 l 1
 21 832 l 1
 21 21 l 1
EndSplineSet
Validated: 1
EndChar

StartChar: quotedbl
Encoding: 34 34 1
Width: 324
VWidth: 1365
Flags: HW
LayerCount: 2
Fore
SplineSet
75 880 m 1
 76 879 l 1
 77 879 l 1
 33 720 l 1
 -21 720 l 1
 -21 720 l 1
 21 880 l 1
 75 880 l 1
129 880 m 1
 183 880 l 1
 183 879 l 1
 183 879 l 1
 141 720 l 1
 87 720 l 1
 86 720 l 1
 85 720 l 1
 129 880 l 1
EndSplineSet
Validated: 5
EndChar

StartChar: percent
Encoding: 37 37 2
Width: 641
VWidth: 1365
Flags: HW
LayerCount: 2
Fore
SplineSet
522 800 m 1
 60 0 l 1
 0 0 l 1
 462 800 l 1
 522 800 l 1
120 800 m 256
 153.333333333 800 181.666666667 788.333333333 205 765 c 128
 228.333333333 741.666666667 240 713.333333333 240 680 c 256
 240 646.666666667 228.333333333 618.333333333 205 595 c 128
 181.666666667 571.666666667 153.333333333 560 120 560 c 256
 86.6666666667 560 58.3333333333 571.666666667 35 595 c 128
 11.6666666667 618.333333333 0 646.666666667 0 680 c 256
 0 713.333333333 11.6666666667 741.666666667 35 765 c 128
 58.3333333333 788.333333333 86.6666666667 800 120 800 c 256
120 748 m 0
 101.333333333 748 85.3333333333 741.333333333 72 728 c 128
 58.6666666667 714.666666667 52 698.666666667 52 680 c 0
 52 660.666666667 58.6666666667 644.5 72 631.5 c 128
 85.3333333333 618.5 101.333333333 612 120 612 c 256
 138.666666667 612 154.666666667 618.666666667 168 632 c 128
 181.333333333 645.333333333 188 661.333333333 188 680 c 0
 188 698.666666667 181.5 714.666666667 168.5 728 c 128
 155.5 741.333333333 139.333333333 748 120 748 c 0
360 240 m 256
 393.333333333 240 421.666666667 228.333333333 445 205 c 128
 468.333333333 181.666666667 480 153.333333333 480 120 c 256
 480 86.6666666667 468.333333333 58.3333333333 445 35 c 128
 421.666666667 11.6666666667 393.333333333 0 360 0 c 256
 326.666666667 0 298.333333333 11.6666666667 275 35 c 128
 251.666666667 58.3333333333 240 86.6666666667 240 120 c 256
 240 153.333333333 251.666666667 181.666666667 275 205 c 128
 298.333333333 228.333333333 326.666666667 240 360 240 c 256
360 189 m 0
 341.333333333 189 325.333333333 182.333333333 312 169 c 128
 298.666666667 155.666666667 292 139.666666667 292 121 c 0
 292 101.666666667 298.666666667 85.3333333333 312 72 c 128
 325.333333333 58.6666666667 341.333333333 52 360 52 c 256
 378.666666667 52 394.666666667 58.6666666667 408 72 c 128
 421.333333333 85.3333333333 428 101.666666667 428 121 c 0
 428 139.666666667 421.5 155.666666667 408.5 169 c 128
 395.5 182.333333333 379.333333333 189 360 189 c 0
EndSplineSet
Validated: 1
EndChar

StartChar: quotesingle
Encoding: 39 39 3
Width: 217
VWidth: 1365
Flags: HW
LayerCount: 2
Fore
SplineSet
75 880 m 1
 76 879 l 1
 77 879 l 1
 33 720 l 1
 -21 720 l 1
 -21 720 l 1
 21 880 l 1
 75 880 l 1
EndSplineSet
Validated: 5
EndChar

StartChar: asterisk
Encoding: 42 42 4
Width: 495
VWidth: 1365
Flags: HW
LayerCount: 2
Fore
SplineSet
39 588 m 1
 188 439 l 1
 337 588 l 1
 376 549 l 1
 227 400 l 1
 376 251 l 1
 337 212 l 1
 188 361 l 1
 39 212 l 1
 0 251 l 1
 149 400 l 1
 0 549 l 1
 39 588 l 1
EndSplineSet
Validated: 1
EndChar

StartChar: plus
Encoding: 43 43 5
Width: 599
VWidth: 1365
Flags: HW
LayerCount: 2
Fore
SplineSet
266 640 m 1
 266 426 l 1
 480 426 l 1
 480 374 l 1
 266 374 l 1
 266 160 l 1
 214 160 l 1
 214 374 l 1
 0 374 l 1
 0 426 l 1
 214 426 l 1
 214 640 l 1
 266 640 l 1
EndSplineSet
Validated: 1
EndChar

StartChar: comma
Encoding: 44 44 6
Width: 119
VWidth: 1365
Flags: HW
LayerCount: 2
Fore
SplineSet
0 104 m 256
 14 104 26.1666666667 98.8333333333 36.5 88.5 c 128
 46.8333333333 78.1666666667 52 66 52 52 c 0
 52 8.66666666667 36.8333333333 -28.1666666667 6.5 -58.5 c 128
 -23.8333333333 -88.8333333333 -60.6666666667 -104 -104 -104 c 1
 -75.3333333333 -104 -50.8333333333 -93.8333333333 -30.5 -73.5 c 128
 -10.1666666667 -53.1666666667 0 -28.6666666667 0 0 c 1
 -14 0 -26.1666666667 5.16666666667 -36.5 15.5 c 128
 -46.8333333333 25.8333333333 -52 38 -52 52 c 128
 -52 66 -46.8333333333 78.1666666667 -36.5 88.5 c 128
 -26.1666666667 98.8333333333 -14 104 0 104 c 256
EndSplineSet
Validated: 1
EndChar

StartChar: hyphen
Encoding: 45 45 7
AltUni2: 0000ad.ffffffff.0
Width: 599
VWidth: 1365
Flags: HW
LayerCount: 2
Fore
SplineSet
0 426 m 1
 480 426 l 1
 480 374 l 1
 0 374 l 1
 0 426 l 1
EndSplineSet
Validated: 1
EndChar

StartChar: period
Encoding: 46 46 8
Width: 119
VWidth: 1365
Flags: HW
LayerCount: 2
Fore
SplineSet
0 104 m 256
 8.66666666667 104 17.1666666667 101.833333333 25.5 97.5 c 128
 33.8333333333 93.1666666667 40.3333333333 86.6666666667 45 78 c 128
 49.6666666667 69.3333333333 52 60.6666666667 52 52 c 256
 52 43.3333333333 49.6666666667 34.8333333333 45 26.5 c 128
 40.3333333333 18.1666666667 33.8333333333 11.6666666667 25.5 7 c 128
 17.1666666667 2.33333333333 8.66666666667 0 0 0 c 256
 -8.66666666667 0 -17.1666666667 2.33333333333 -25.5 7 c 128
 -33.8333333333 11.6666666667 -40.3333333333 18.1666666667 -45 26.5 c 128
 -49.6666666667 34.8333333333 -52 43.3333333333 -52 52 c 256
 -52 60.6666666667 -49.6666666667 69.3333333333 -45 78 c 128
 -40.3333333333 86.6666666667 -33.8333333333 93.1666666667 -25.5 97.5 c 128
 -17.1666666667 101.833333333 -8.66666666667 104 0 104 c 256
EndSplineSet
Validated: 1
EndChar

StartChar: slash
Encoding: 47 47 9
Width: 521
VWidth: 1365
Flags: HW
LayerCount: 2
Fore
SplineSet
452 800 m 1
 -10 0 l 1
 -70 0 l 1
 392 800 l 1
 452 800 l 1
EndSplineSet
Validated: 1
EndChar

StartChar: zero
Encoding: 48 48 10
Width: 599
VWidth: 1365
Flags: HW
LayerCount: 2
Fore
SplineSet
240 800 m 256
 306 800 362.5 776.5 409.5 729.5 c 128
 456.5 682.5 480 626 480 560 c 2
 480 240 l 2
 480 174 456.5 117.5 409.5 70.5 c 128
 362.5 23.5 306 0 240 0 c 256
 174 0 117.5 23.5 70.5 70.5 c 128
 23.5 117.5 0 174 0 240 c 2
 0 560 l 2
 0 626 23.5 682.5 70.5 729.5 c 128
 117.5 776.5 174 800 240 800 c 256
100 560 m 2
 100 240 l 2
 100 201.333333333 113.666666667 168.333333333 141 141 c 128
 168.333333333 113.666666667 201.333333333 100 240 100 c 256
 278.666666667 100 311.666666667 113.666666667 339 141 c 128
 366.333333333 168.333333333 380 201.333333333 380 240 c 2
 380 560 l 2
 380 598.666666667 366.333333333 631.666666667 339 659 c 128
 311.666666667 686.333333333 278.666666667 700 240 700 c 256
 201.333333333 700 168.333333333 686.333333333 141 659 c 128
 113.666666667 631.666666667 100 598.666666667 100 560 c 2
EndSplineSet
Validated: 1
EndChar

StartChar: one
Encoding: 49 49 11
Width: 326
VWidth: 1365
Flags: HW
LayerCount: 2
Fore
SplineSet
207 800 m 1
 207 0 l 1
 107 0 l 1
 107 605 l 1
 75 581.666666667 39.3333333333 567.666666667 0 563 c 1
 0 664 l 1
 25.3333333333 670 49.5 684.5 72.5 707.5 c 128
 95.5 730.5 107 761.333333333 107 800 c 1
 207 800 l 1
EndSplineSet
Validated: 1
EndChar

StartChar: two
Encoding: 50 50 12
Width: 599
VWidth: 1365
Flags: HW
LayerCount: 2
Fore
SplineSet
240 800 m 256
 306 800 362.5 776.5 409.5 729.5 c 128
 456.5 682.5 480 626 480 560 c 256
 480 494 456.666666667 437.333333333 410 390 c 1
 399 380 l 1
 387 371 l 1
 215 237 l 2
 205 229.666666667 196 221.333333333 188 212 c 0
 156 180 132.333333333 142.666666667 117 100 c 1
 480 100 l 1
 480 0 l 1
 0 0 l 1
 0 110.666666667 39 205 117 283 c 0
 128.333333333 294.333333333 140.666666667 305 154 315 c 2
 326 449 l 2
 330.666666667 452.333333333 335 456.333333333 339 461 c 0
 366.333333333 488.333333333 380 521.333333333 380 560 c 128
 380 598.666666667 366.333333333 631.666666667 339 659 c 128
 311.666666667 686.333333333 278.666666667 700 240 700 c 256
 201.333333333 700 168.333333333 686.333333333 141 659 c 128
 113.666666667 631.666666667 100 597.333333333 100 556 c 1
 0 556 l 1
 0 624.666666667 23.5 682.5 70.5 729.5 c 128
 117.5 776.5 174 800 240 800 c 256
EndSplineSet
Validated: 1
EndChar

StartChar: three
Encoding: 51 51 13
Width: 599
VWidth: 1365
Flags: HW
LayerCount: 2
Fore
SplineSet
430 800 m 1
 430 700 l 1
 291 575 l 1
 337 565 380 539.833333333 420 499.5 c 128
 460 459.166666667 480 406 480 340 c 2
 480 240 l 2
 480 174 456.5 117.5 409.5 70.5 c 128
 362.5 23.5 306 0 240 0 c 256
 174 0 117.5 23.5 70.5 70.5 c 128
 23.5 117.5 0 174 0 240 c 1
 100 240 l 1
 100 201.333333333 113.666666667 168.333333333 141 141 c 128
 168.333333333 113.666666667 201.333333333 100 240 100 c 256
 278.666666667 100 311.666666667 113.666666667 339 141 c 128
 366.333333333 168.333333333 380 201.333333333 380 240 c 2
 380 340 l 2
 380 378.666666667 366.333333333 411.666666667 339 439 c 128
 311.666666667 466.333333333 278.666666667 480 240 480 c 256
 201.333333333 480 168.333333333 466.333333333 141 439 c 2
 138 436 l 1
 90 527 l 1
 281 700 l 1
 0 700 l 1
 52 800 l 1
 430 800 l 1
EndSplineSet
Validated: 1
EndChar

StartChar: four
Encoding: 52 52 14
Width: 599
VWidth: 1365
Flags: HW
LayerCount: 2
Fore
SplineSet
330 800 m 1
 430 800 l 1
 430 290 l 1
 480 290 l 1
 480 190 l 1
 430 190 l 1
 430 0 l 1
 330 0 l 1
 330 190 l 1
 0 190 l 1
 0 290 l 1
 330 800 l 1
119 290 m 1
 330 290 l 1
 330 616 l 1
 119 290 l 1
EndSplineSet
Validated: 1
EndChar

StartChar: five
Encoding: 53 53 15
Width: 599
VWidth: 1365
Flags: HW
LayerCount: 2
Fore
SplineSet
0 800 m 1
 430 800 l 1
 430 700 l 1
 100 700 l 1
 100 555 l 1
 142 585 188.666666667 600 240 600 c 0
 306 600 362.5 576.5 409.5 529.5 c 128
 456.5 482.5 480 426 480 360 c 2
 480 240 l 2
 480 174 456.5 117.5 409.5 70.5 c 128
 362.5 23.5 306 0 240 0 c 256
 174 0 117.5 23.5 70.5 70.5 c 128
 23.5 117.5 0 174 0 240 c 1
 100 240 l 1
 100 201.333333333 113.666666667 168.333333333 141 141 c 128
 168.333333333 113.666666667 201.333333333 100 240 100 c 256
 278.666666667 100 311.666666667 113.666666667 339 141 c 128
 366.333333333 168.333333333 380 201.333333333 380 240 c 2
 380 360 l 2
 380 398.666666667 366.333333333 431.666666667 339 459 c 128
 311.666666667 486.333333333 278.666666667 500 240 500 c 0
 214 500 190 493.333333333 168 480 c 1
 0 480 l 1
 0 800 l 1
EndSplineSet
Validated: 1
EndChar

StartChar: six
Encoding: 54 54 16
Width: 599
VWidth: 1365
Flags: HW
LayerCount: 2
Fore
SplineSet
240 800 m 256
 306 800 358.666666667 780.333333333 398 741 c 128
 437.333333333 701.666666667 462.333333333 660 473 616 c 1
 368 616 l 1
 361.333333333 632 348 650 328 670 c 128
 308 690 278.666666667 700 240 700 c 256
 201.333333333 700 168.333333333 686.333333333 141 659 c 128
 113.666666667 631.666666667 100 598.666666667 100 560 c 2
 100 455 l 1
 142 485 188.666666667 500 240 500 c 0
 306 500 362.5 476.5 409.5 429.5 c 128
 456.5 382.5 480 326 480 260 c 2
 480 240 l 2
 480 174 456.5 117.5 409.5 70.5 c 128
 362.5 23.5 306 0 240 0 c 256
 174 0 117.5 23.5 70.5 70.5 c 128
 23.5 117.5 0 174 0 240 c 2
 0 560 l 2
 0 626 23.5 682.5 70.5 729.5 c 128
 117.5 776.5 174 800 240 800 c 256
100 260 m 2
 100 240 l 2
 100 201.333333333 113.666666667 168.333333333 141 141 c 128
 168.333333333 113.666666667 201.333333333 100 240 100 c 256
 278.666666667 100 311.666666667 113.666666667 339 141 c 128
 366.333333333 168.333333333 380 201.333333333 380 240 c 2
 380 260 l 2
 380 298.666666667 366.333333333 331.666666667 339 359 c 128
 311.666666667 386.333333333 278.666666667 400 240 400 c 256
 201.333333333 400 168.333333333 386.333333333 141 359 c 128
 113.666666667 331.666666667 100 298.666666667 100 260 c 2
EndSplineSet
Validated: 1
EndChar

StartChar: seven
Encoding: 55 55 17
Width: 599
VWidth: 1365
Flags: HW
LayerCount: 2
Fore
SplineSet
0 800 m 1
 480 800 l 1
 480 647 l 1
 446 622.333333333 382.5 563.5 289.5 470.5 c 128
 196.5 377.5 150 220.666666667 150 0 c 1
 50 0 l 1
 50 248.666666667 99.5 422.5 198.5 521.5 c 128
 297.5 620.5 359.333333333 680 384 700 c 1
 0 700 l 1
 0 800 l 1
EndSplineSet
Validated: 1
EndChar

StartChar: eight
Encoding: 56 56 18
Width: 599
VWidth: 1365
Flags: HW
LayerCount: 2
Fore
SplineSet
480 560 m 0
 480 499.333333333 459.666666667 446 419 400 c 1
 459.666666667 354.666666667 480 301.333333333 480 240 c 0
 480 174 456.5 117.5 409.5 70.5 c 128
 362.5 23.5 305.333333333 0 238 0 c 0
 173.333333333 0 117.5 23.5 70.5 70.5 c 128
 23.5 117.5 0 174 0 240 c 0
 0 301.333333333 20.3333333333 354.666666667 61 400 c 1
 20.3333333333 446 0 499.333333333 0 560 c 0
 0 626 23.5 682.5 70.5 729.5 c 128
 117.5 776.5 174.666666667 800 242 800 c 0
 306.666666667 800 362.5 776.5 409.5 729.5 c 128
 456.5 682.5 480 626 480 560 c 0
141 141 m 128
 168.333333333 113.666666667 201.333333333 100 240 100 c 128
 278.666666667 100 311.666666667 113.666666667 339 141 c 128
 366.333333333 168.333333333 380 201.333333333 380 240 c 128
 380 278.666666667 366.333333333 311.666666667 339 339 c 128
 311.666666667 366.333333333 278.666666667 380 240 380 c 128
 201.333333333 380 168.333333333 366.333333333 141 339 c 128
 113.666666667 311.666666667 100 278.666666667 100 240 c 128
 100 201.333333333 113.666666667 168.333333333 141 141 c 128
141 461 m 128
 168.333333333 433.666666667 201.333333333 420 240 420 c 128
 278.666666667 420 311.666666667 433.666666667 339 461 c 128
 366.333333333 488.333333333 380 521.333333333 380 560 c 128
 380 598.666666667 366.333333333 631.666666667 339 659 c 128
 311.666666667 686.333333333 278.666666667 700 240 700 c 128
 201.333333333 700 168.333333333 686.333333333 141 659 c 128
 113.666666667 631.666666667 100 598.666666667 100 560 c 128
 100 521.333333333 113.666666667 488.333333333 141 461 c 128
EndSplineSet
Validated: 1
EndChar

StartChar: nine
Encoding: 57 57 19
Width: 599
VWidth: 1365
Flags: HW
LayerCount: 2
Fore
SplineSet
240 0 m 256
 174 0 121.333333333 19.6666666667 82 59 c 128
 42.6666666667 98.3333333333 17.6666666667 140 7 184 c 1
 112 184 l 1
 118.666666667 168 132 150 152 130 c 128
 172 110 201.333333333 100 240 100 c 256
 278.666666667 100 311.666666667 113.666666667 339 141 c 128
 366.333333333 168.333333333 380 201.333333333 380 240 c 2
 380 345 l 1
 338 315 291.333333333 300 240 300 c 0
 174 300 117.5 323.5 70.5 370.5 c 128
 23.5 417.5 0 474 0 540 c 2
 0 560 l 2
 0 626 23.5 682.5 70.5 729.5 c 128
 117.5 776.5 174 800 240 800 c 256
 306 800 362.5 776.5 409.5 729.5 c 128
 456.5 682.5 480 626 480 560 c 2
 480 240 l 2
 480 174 456.5 117.5 409.5 70.5 c 128
 362.5 23.5 306 0 240 0 c 256
380 540 m 2
 380 560 l 2
 380 598.666666667 366.333333333 631.666666667 339 659 c 128
 311.666666667 686.333333333 278.666666667 700 240 700 c 256
 201.333333333 700 168.333333333 686.333333333 141 659 c 128
 113.666666667 631.666666667 100 598.666666667 100 560 c 2
 100 540 l 2
 100 501.333333333 113.666666667 468.333333333 141 441 c 128
 168.333333333 413.666666667 201.333333333 400 240 400 c 256
 278.666666667 400 311.666666667 413.666666667 339 441 c 128
 366.333333333 468.333333333 380 501.333333333 380 540 c 2
EndSplineSet
Validated: 1
EndChar

StartChar: colon
Encoding: 58 58 20
Width: 119
VWidth: 1365
Flags: HW
LayerCount: 2
Fore
SplineSet
0 800 m 256
 8.66666666667 800 17.1666666667 797.666666667 25.5 793 c 128
 33.8333333333 788.333333333 40.3333333333 781.833333333 45 773.5 c 128
 49.6666666667 765.166666667 52 756.666666667 52 748 c 256
 52 739.333333333 49.6666666667 730.833333333 45 722.5 c 128
 40.3333333333 714.166666667 33.8333333333 707.666666667 25.5 703 c 128
 17.1666666667 698.333333333 8.66666666667 696 0 696 c 256
 -8.66666666667 696 -17.1666666667 698.333333333 -25.5 703 c 128
 -33.8333333333 707.666666667 -40.3333333333 714 -45 722 c 128
 -49.6666666667 730 -52 738.666666667 -52 748 c 256
 -52 756.666666667 -49.6666666667 765.166666667 -45 773.5 c 128
 -40.3333333333 781.833333333 -33.8333333333 788.333333333 -25.5 793 c 128
 -17.1666666667 797.666666667 -8.66666666667 800 0 800 c 256
0 104 m 256
 8.66666666667 104 17.1666666667 101.833333333 25.5 97.5 c 128
 33.8333333333 93.1666666667 40.3333333333 86.6666666667 45 78 c 128
 49.6666666667 69.3333333333 52 60.6666666667 52 52 c 256
 52 43.3333333333 49.6666666667 34.8333333333 45 26.5 c 128
 40.3333333333 18.1666666667 33.8333333333 11.6666666667 25.5 7 c 128
 17.1666666667 2.33333333333 8.66666666667 0 0 0 c 256
 -8.66666666667 0 -17.1666666667 2.33333333333 -25.5 7 c 128
 -33.8333333333 11.6666666667 -40.3333333333 18.1666666667 -45 26.5 c 128
 -49.6666666667 34.8333333333 -52 43.3333333333 -52 52 c 256
 -52 60.6666666667 -49.6666666667 69.3333333333 -45 78 c 128
 -40.3333333333 86.6666666667 -33.8333333333 93.1666666667 -25.5 97.5 c 128
 -17.1666666667 101.833333333 -8.66666666667 104 0 104 c 256
EndSplineSet
Validated: 1
EndChar

StartChar: semicolon
Encoding: 59 59 21
AltUni2: 00037e.ffffffff.0
Width: 119
VWidth: 1365
Flags: HW
LayerCount: 2
Fore
SplineSet
0 104 m 256
 14 104 26.1666666667 98.8333333333 36.5 88.5 c 128
 46.8333333333 78.1666666667 52 66 52 52 c 0
 52 8.66666666667 36.8333333333 -28.1666666667 6.5 -58.5 c 128
 -23.8333333333 -88.8333333333 -60.6666666667 -104 -104 -104 c 1
 -75.3333333333 -104 -50.8333333333 -93.8333333333 -30.5 -73.5 c 128
 -10.1666666667 -53.1666666667 0 -28.6666666667 0 0 c 1
 -14 0 -26.1666666667 5.16666666667 -36.5 15.5 c 128
 -46.8333333333 25.8333333333 -52 38 -52 52 c 128
 -52 66 -46.8333333333 78.1666666667 -36.5 88.5 c 128
 -26.1666666667 98.8333333333 -14 104 0 104 c 256
0 800 m 256
 8.66666666667 800 17.1666666667 797.666666667 25.5 793 c 128
 33.8333333333 788.333333333 40.3333333333 781.833333333 45 773.5 c 128
 49.6666666667 765.166666667 52 756.666666667 52 748 c 256
 52 739.333333333 49.6666666667 730.833333333 45 722.5 c 128
 40.3333333333 714.166666667 33.8333333333 707.666666667 25.5 703 c 128
 17.1666666667 698.333333333 8.66666666667 696 0 696 c 256
 -8.66666666667 696 -17.1666666667 698.333333333 -25.5 703 c 128
 -33.8333333333 707.666666667 -40.3333333333 714 -45 722 c 128
 -49.6666666667 730 -52 738.666666667 -52 748 c 256
 -52 756.666666667 -49.6666666667 765.166666667 -45 773.5 c 128
 -40.3333333333 781.833333333 -33.8333333333 788.333333333 -25.5 793 c 128
 -17.1666666667 797.666666667 -8.66666666667 800 0 800 c 256
EndSplineSet
Validated: 1
EndChar

StartChar: less
Encoding: 60 60 22
Width: 599
VWidth: 1365
Flags: HW
LayerCount: 2
Fore
SplineSet
0 400 m 1
 480 640 l 1
 480 582 l 1
 116 400 l 1
 480 218 l 1
 480 160 l 1
 0 400 l 1
EndSplineSet
Validated: 1
EndChar

StartChar: equal
Encoding: 61 61 23
Width: 599
VWidth: 1365
Flags: HW
LayerCount: 2
Fore
SplineSet
0 348 m 1
 480 348 l 1
 480 296 l 1
 0 296 l 1
 0 348 l 1
0 504 m 1
 480 504 l 1
 480 452 l 1
 0 452 l 1
 0 504 l 1
EndSplineSet
Validated: 1
EndChar

StartChar: greater
Encoding: 62 62 24
Width: 599
VWidth: 1365
Flags: HW
LayerCount: 2
Fore
SplineSet
480 400 m 1
 0 160 l 1
 0 218 l 1
 364 400 l 1
 0 582 l 1
 0 640 l 1
 480 400 l 1
EndSplineSet
Validated: 1
EndChar

StartChar: A
Encoding: 65 65 25
Width: 599
VWidth: 1365
Flags: HW
LayerCount: 2
Fore
SplineSet
190 800 m 1
 290 800 l 1
 480 0 l 1
 377 0 l 1
 337 167 l 1
 143 167 l 1
 103 0 l 1
 0 0 l 1
 190 800 l 1
166 267 m 1
 314 267 l 1
 240 578 l 1
 166 267 l 1
EndSplineSet
Validated: 1
EndChar

StartChar: B
Encoding: 66 66 26
Width: 599
VWidth: 1365
Flags: HW
LayerCount: 2
Fore
SplineSet
0 800 m 1
 280 800 l 2
 335.333333333 800 382.5 780.333333333 421.5 741 c 128
 460.5 701.666666667 480 654.666666667 480 600 c 256
 480 544.666666667 453.666666667 490.666666667 401 438 c 1
 453.666666667 385.333333333 480 326 480 260 c 2
 480 240 l 2
 480 174 456.5 117.5 409.5 70.5 c 128
 362.5 23.5 306 0 240 0 c 2
 0 0 l 1
 0 800 l 1
100 700 m 1
 100 500 l 1
 280 500 l 2
 307.333333333 500 330.833333333 509.833333333 350.5 529.5 c 128
 370.166666667 549.166666667 380 572.666666667 380 600 c 128
 380 627.333333333 370.166666667 650.833333333 350.5 670.5 c 128
 330.833333333 690.166666667 307.333333333 700 280 700 c 2
 100 700 l 1
100 400 m 1
 100 100 l 1
 240 100 l 2
 278.666666667 100 311.666666667 113.666666667 339 141 c 128
 366.333333333 168.333333333 380 201.333333333 380 240 c 2
 380 260 l 2
 380 298.666666667 366.333333333 331.666666667 339 359 c 128
 311.666666667 386.333333333 278.666666667 400 240 400 c 2
 100 400 l 1
EndSplineSet
Validated: 1
EndChar

StartChar: C
Encoding: 67 67 27
Width: 599
VWidth: 1365
Flags: HW
LayerCount: 2
Fore
SplineSet
480 240 m 1
 480 174 456.5 117.5 409.5 70.5 c 128
 362.5 23.5 306 0 240 0 c 256
 174 0 117.5 23.5 70.5 70.5 c 128
 23.5 117.5 0 174 0 240 c 2
 0 560 l 2
 0 626 23.5 682.5 70.5 729.5 c 128
 117.5 776.5 174 800 240 800 c 256
 306 800 362.5 776.5 409.5 729.5 c 128
 456.5 682.5 480 626 480 560 c 1
 380 560 l 1
 380 598.666666667 366.333333333 631.666666667 339 659 c 128
 311.666666667 686.333333333 278.666666667 700 240 700 c 256
 201.333333333 700 168.333333333 686.333333333 141 659 c 128
 113.666666667 631.666666667 100 598.666666667 100 560 c 2
 100 240 l 2
 100 201.333333333 113.666666667 168.333333333 141 141 c 128
 168.333333333 113.666666667 201.333333333 100 240 100 c 256
 278.666666667 100 311.666666667 113.666666667 339 141 c 128
 366.333333333 168.333333333 380 201.333333333 380 240 c 1
 480 240 l 1
EndSplineSet
Validated: 1
EndChar

StartChar: D
Encoding: 68 68 28
Width: 599
VWidth: 1365
Flags: HW
LayerCount: 2
Fore
SplineSet
240 0 m 2
 0 0 l 1
 0 800 l 1
 240 800 l 2
 306 800 362.5 776.5 409.5 729.5 c 128
 456.5 682.5 480 626 480 560 c 2
 480 240 l 2
 480 174 456.5 117.5 409.5 70.5 c 128
 362.5 23.5 306 0 240 0 c 2
240 700 m 2
 100 700 l 1
 100 100 l 1
 240 100 l 2
 278.666666667 100 311.666666667 113.666666667 339 141 c 128
 366.333333333 168.333333333 380 201.333333333 380 240 c 2
 380 560 l 2
 380 598.666666667 366.333333333 631.666666667 339 659 c 128
 311.666666667 686.333333333 278.666666667 700 240 700 c 2
EndSplineSet
Validated: 1
EndChar

StartChar: E
Encoding: 69 69 29
Width: 599
VWidth: 1365
Flags: HW
LayerCount: 2
Fore
SplineSet
430 800 m 1
 430 700 l 1
 100 700 l 1
 100 500 l 1
 380 500 l 1
 380 400 l 1
 100 400 l 1
 100 100 l 1
 480 100 l 1
 480 0 l 1
 0 0 l 1
 0 800 l 1
 430 800 l 1
EndSplineSet
Validated: 1
EndChar

StartChar: F
Encoding: 70 70 30
Width: 599
VWidth: 1365
Flags: HW
LayerCount: 2
Fore
SplineSet
100 400 m 1
 100 0 l 1
 0 0 l 1
 0 800 l 1
 480 800 l 1
 480 700 l 1
 100 700 l 1
 100 500 l 1
 320 500 l 1
 320 400 l 1
 100 400 l 1
EndSplineSet
Validated: 1
EndChar

StartChar: G
Encoding: 71 71 31
Width: 599
VWidth: 1365
Flags: HW
LayerCount: 2
Fore
SplineSet
480 240 m 2
 480 174 456.5 117.5 409.5 70.5 c 128
 362.5 23.5 306 0 240 0 c 256
 174 0 117.5 23.5 70.5 70.5 c 128
 23.5 117.5 0 174 0 240 c 2
 0 560 l 2
 0 626 23.5 682.5 70.5 729.5 c 128
 117.5 776.5 174 800 240 800 c 256
 306 800 362.5 776.5 409.5 729.5 c 128
 456.5 682.5 480 626 480 560 c 1
 380 560 l 1
 380 598.666666667 366.333333333 631.666666667 339 659 c 128
 311.666666667 686.333333333 278.666666667 700 240 700 c 256
 201.333333333 700 168.333333333 686.333333333 141 659 c 128
 113.666666667 631.666666667 100 598.666666667 100 560 c 2
 100 240 l 2
 100 201.333333333 113.666666667 168.333333333 141 141 c 128
 168.333333333 113.666666667 201.333333333 100 240 100 c 256
 278.666666667 100 311.666666667 113.666666667 339 141 c 128
 366.333333333 168.333333333 380 201.333333333 380 240 c 2
 380 300 l 1
 296 300 l 1
 296 400 l 1
 480 400 l 1
 480 240 l 2
EndSplineSet
Validated: 1
EndChar

StartChar: H
Encoding: 72 72 32
Width: 599
VWidth: 1365
Flags: HW
LayerCount: 2
Fore
SplineSet
100 800 m 1
 100 500 l 1
 380 500 l 1
 380 800 l 1
 480 800 l 1
 480 0 l 1
 380 0 l 1
 380 400 l 1
 100 400 l 1
 100 0 l 1
 0 0 l 1
 0 800 l 1
 100 800 l 1
EndSplineSet
Validated: 1
EndChar

StartChar: I
Encoding: 73 73 33
Width: 219
VWidth: 1365
Flags: HW
LayerCount: 2
Fore
SplineSet
0 800 m 1
 100 800 l 1
 100 0 l 1
 0 0 l 1
 0 800 l 1
EndSplineSet
Validated: 1
EndChar

StartChar: J
Encoding: 74 74 34
Width: 359
VWidth: 1365
Flags: HW
LayerCount: 2
Fore
SplineSet
240 800 m 1
 240 144 l 2
 240 104.666666667 225.833333333 70.8333333333 197.5 42.5 c 128
 169.166666667 14.1666666667 135.333333333 0 96 0 c 2
 0 0 l 1
 0 100 l 1
 96 100 l 2
 108 100 118.333333333 104.166666667 127 112.5 c 128
 135.666666667 120.833333333 140 131.333333333 140 144 c 2
 140 700 l 1
 0 700 l 1
 0 800 l 1
 240 800 l 1
EndSplineSet
Validated: 1
EndChar

StartChar: K
Encoding: 75 75 35
Width: 599
VWidth: 1365
Flags: HW
LayerCount: 2
Fore
SplineSet
100 800 m 1
 100 439 l 1
 357 800 l 1
 480 800 l 1
 290 533 l 1
 480 0 l 1
 374 0 l 1
 219 434 l 1
 100 267 l 1
 100 0 l 1
 0 0 l 1
 0 800 l 1
 100 800 l 1
EndSplineSet
Validated: 1
EndChar

StartChar: L
Encoding: 76 76 36
Width: 599
VWidth: 1365
Flags: HW
LayerCount: 2
Fore
SplineSet
0 0 m 1
 0 800 l 1
 100 800 l 1
 100 100 l 1
 480 100 l 1
 480 0 l 1
 0 0 l 1
EndSplineSet
Validated: 1
EndChar

StartChar: M
Encoding: 77 77 37
Width: 839
VWidth: 1365
Flags: HW
LayerCount: 2
Fore
SplineSet
100 800 m 1
 360 400 l 1
 620 800 l 1
 720 800 l 1
 720 0 l 1
 620 0 l 1
 620 617 l 1
 360 217 l 1
 100 617 l 1
 100 0 l 1
 0 0 l 1
 0 800 l 1
 100 800 l 1
EndSplineSet
Validated: 1
EndChar

StartChar: N
Encoding: 78 78 38
Width: 599
VWidth: 1365
Flags: HW
LayerCount: 2
Fore
SplineSet
480 800 m 1
 480 1 l 1
 370 0 l 1
 100 584 l 1
 100 0 l 1
 0 0 l 1
 0 800 l 1
 103 800 l 1
 380 216 l 1
 380 800 l 1
 480 800 l 1
EndSplineSet
Validated: 1
EndChar

StartChar: O
Encoding: 79 79 39
Width: 599
VWidth: 1365
Flags: HW
LayerCount: 2
Fore
SplineSet
240 800 m 256
 306 800 362.5 776.5 409.5 729.5 c 128
 456.5 682.5 480 626 480 560 c 2
 480 240 l 2
 480 174 456.5 117.5 409.5 70.5 c 128
 362.5 23.5 306 0 240 0 c 256
 174 0 117.5 23.5 70.5 70.5 c 128
 23.5 117.5 0 174 0 240 c 2
 0 560 l 2
 0 626 23.5 682.5 70.5 729.5 c 128
 117.5 776.5 174 800 240 800 c 256
100 560 m 2
 100 240 l 2
 100 201.333333333 113.666666667 168.333333333 141 141 c 128
 168.333333333 113.666666667 201.333333333 100 240 100 c 256
 278.666666667 100 311.666666667 113.666666667 339 141 c 128
 366.333333333 168.333333333 380 201.333333333 380 240 c 2
 380 560 l 2
 380 598.666666667 366.333333333 631.666666667 339 659 c 128
 311.666666667 686.333333333 278.666666667 700 240 700 c 256
 201.333333333 700 168.333333333 686.333333333 141 659 c 128
 113.666666667 631.666666667 100 598.666666667 100 560 c 2
EndSplineSet
Validated: 1
EndChar

StartChar: P
Encoding: 80 80 40
Width: 599
VWidth: 1365
Flags: HW
LayerCount: 2
Fore
SplineSet
240 800 m 2
 306 800 362.5 776.5 409.5 729.5 c 128
 456.5 682.5 480 626 480 560 c 2
 480 540 l 2
 480 474 456.5 417.5 409.5 370.5 c 128
 362.5 323.5 306 300 240 300 c 2
 100 300 l 1
 100 0 l 1
 0 0 l 1
 0 800 l 1
 240 800 l 2
100 700 m 1
 100 400 l 1
 240 400 l 2
 278.666666667 400 311.666666667 413.666666667 339 441 c 128
 366.333333333 468.333333333 380 501.333333333 380 540 c 2
 380 560 l 2
 380 598.666666667 366.333333333 631.666666667 339 659 c 128
 311.666666667 686.333333333 278.666666667 700 240 700 c 2
 100 700 l 1
EndSplineSet
Validated: 1
EndChar

StartChar: Q
Encoding: 81 81 41
Width: 669
VWidth: 1365
Flags: HW
LayerCount: 2
Fore
SplineSet
380 327 m 1
 380 560 l 2
 380 598.666666667 366.333333333 631.666666667 339 659 c 128
 311.666666667 686.333333333 278.666666667 700 240 700 c 256
 201.333333333 700 168.333333333 686.333333333 141 659 c 128
 113.666666667 631.666666667 100 598.666666667 100 560 c 2
 100 240 l 2
 100 201.333333333 113.666666667 168.333333333 141 141 c 128
 168.333333333 113.666666667 201.333333333 100 240 100 c 256
 278.666666667 100 311.666666667 113.666666667 339 141 c 0
 359.666666667 161.666666667 372.333333333 185.666666667 377 213 c 1
 310 251 l 1
 360 338 l 1
 380 327 l 1
467 161 m 1
 455.666666667 127.666666667 436.666666667 97.6666666667 410 71 c 0
 362.666666667 23.6666666667 306 0 240 0 c 256
 174 0 117.5 23.5 70.5 70.5 c 128
 23.5 117.5 0 174 0 240 c 2
 0 560 l 2
 0 626 23.5 682.5 70.5 729.5 c 128
 117.5 776.5 174 800 240 800 c 256
 306 800 362.5 776.5 409.5 729.5 c 128
 456.5 682.5 480 626 480 560 c 2
 480 269 l 1
 550 229 l 1
 500 142 l 1
 467 161 l 1
EndSplineSet
Validated: 1
EndChar

StartChar: R
Encoding: 82 82 42
Width: 599
VWidth: 1365
Flags: HW
LayerCount: 2
Fore
SplineSet
100 700 m 1
 100 400 l 1
 240 400 l 2
 278.666666667 400 311.666666667 413.666666667 339 441 c 128
 366.333333333 468.333333333 380 501.333333333 380 540 c 2
 380 560 l 2
 380 598.666666667 366.333333333 631.666666667 339 659 c 128
 311.666666667 686.333333333 278.666666667 700 240 700 c 2
 100 700 l 1
480 0 m 1
 371 0 l 1
 237 300 l 1
 100 300 l 1
 100 0 l 1
 0 0 l 1
 0 800 l 1
 240 800 l 2
 306 800 362.5 776.5 409.5 729.5 c 128
 456.5 682.5 480 626 480 560 c 2
 480 540 l 2
 480 474 456.666666667 417.666666667 410 371 c 0
 388 349 363.666666667 332 337 320 c 1
 480 0 l 1
EndSplineSet
Validated: 1
EndChar

StartChar: S
Encoding: 83 83 43
Width: 599
VWidth: 1365
Flags: HW
LayerCount: 2
Fore
SplineSet
240 800 m 256
 306 800 362.5 776.666666667 409.5 730 c 128
 456.5 683.333333333 480 626.666666667 480 560 c 1
 380 560 l 1
 380 598.666666667 366.333333333 631.666666667 339 659 c 128
 311.666666667 686.333333333 278.666666667 700 240 700 c 256
 201.333333333 700 168.333333333 686.333333333 141 659 c 128
 113.666666667 631.666666667 100 598.666666667 100 560 c 0
 100 532.666666667 108.5 510.333333333 125.5 493 c 128
 142.5 475.666666667 161.333333333 465.333333333 182 462 c 2
 317 437 l 2
 357.666666667 429.666666667 395 408.833333333 429 374.5 c 128
 463 340.166666667 480 295.333333333 480 240 c 0
 480 174 456.5 117.5 409.5 70.5 c 128
 362.5 23.5 306 0 240 0 c 256
 174 0 117.5 23.5 70.5 70.5 c 128
 23.5 117.5 0 174 0 240 c 1
 100 240 l 1
 100 201.333333333 113.666666667 168.333333333 141 141 c 128
 168.333333333 113.666666667 201.666666667 101.333333333 241 104 c 1
 279 101.333333333 311.666666667 113.666666667 339 141 c 128
 366.333333333 168.333333333 380 201.333333333 380 240 c 0
 380 267.333333333 371.5 289.666666667 354.5 307 c 128
 337.5 324.333333333 318.666666667 334.666666667 298 338 c 2
 163 363 l 2
 122.333333333 370.333333333 85 391.166666667 51 425.5 c 128
 17 459.833333333 0 504.666666667 0 560 c 0
 0 626 23.5 682.5 70.5 729.5 c 128
 117.5 776.5 174 800 240 800 c 256
EndSplineSet
Validated: 33
EndChar

StartChar: T
Encoding: 84 84 44
Width: 599
VWidth: 1365
Flags: HW
LayerCount: 2
Fore
SplineSet
480 800 m 1
 480 700 l 1
 290 700 l 1
 290 0 l 1
 190 0 l 1
 190 700 l 1
 0 700 l 1
 0 800 l 1
 480 800 l 1
EndSplineSet
Validated: 1
EndChar

StartChar: U
Encoding: 85 85 45
Width: 599
VWidth: 1365
Flags: HW
LayerCount: 2
Fore
SplineSet
100 800 m 1
 100 240 l 2
 100 201.333333333 113.666666667 168.333333333 141 141 c 128
 168.333333333 113.666666667 201.333333333 100 240 100 c 256
 278.666666667 100 311.666666667 113.666666667 339 141 c 128
 366.333333333 168.333333333 380 201.333333333 380 240 c 2
 380 800 l 1
 480 800 l 1
 480 240 l 2
 480 174 456.5 117.5 409.5 70.5 c 128
 362.5 23.5 306 0 240 0 c 256
 174 0 117.5 23.5 70.5 70.5 c 128
 23.5 117.5 0 174 0 240 c 2
 0 800 l 1
 100 800 l 1
EndSplineSet
Validated: 1
EndChar

StartChar: V
Encoding: 86 86 46
Width: 599
VWidth: 1365
Flags: HW
LayerCount: 2
Fore
SplineSet
103 800 m 1
 240 222 l 1
 377 800 l 1
 480 800 l 1
 290 0 l 1
 190 0 l 1
 0 800 l 1
 103 800 l 1
EndSplineSet
Validated: 1
EndChar

StartChar: W
Encoding: 87 87 47
Width: 839
VWidth: 1365
Flags: HW
LayerCount: 2
Fore
SplineSet
101 800 m 1
 200 142 l 1
 283 700 l 1
 437 700 l 1
 520 142 l 1
 619 800 l 1
 720 800 l 1
 600 0 l 1
 441 0 l 1
 360 516 l 1
 279 0 l 1
 120 0 l 1
 0 800 l 1
 101 800 l 1
EndSplineSet
Validated: 1
EndChar

StartChar: X
Encoding: 88 88 48
Width: 599
VWidth: 1365
Flags: HW
LayerCount: 2
Fore
SplineSet
103 800 m 1
 240 519 l 1
 370 800 l 1
 480 800 l 1
 295 400 l 1
 480 0 l 1
 370 0 l 1
 240 281 l 1
 103 0 l 1
 0 0 l 1
 185 400 l 1
 2 800 l 1
 103 800 l 1
EndSplineSet
Validated: 1
EndChar

StartChar: Y
Encoding: 89 89 49
Width: 599
VWidth: 1365
Flags: HW
LayerCount: 2
Fore
SplineSet
106 800 m 1
 240 423 l 1
 374 800 l 1
 480 800 l 1
 290 267 l 1
 290 0 l 1
 190 0 l 1
 190 267 l 1
 0 800 l 1
 106 800 l 1
EndSplineSet
Validated: 1
EndChar

StartChar: Z
Encoding: 90 90 50
Width: 599
VWidth: 1365
Flags: HW
LayerCount: 2
Fore
SplineSet
480 800 m 1
 480 661 l 1
 100 100 l 1
 480 100 l 1
 480 0 l 1
 0 0 l 1
 0 139 l 1
 385 700 l 1
 0 700 l 1
 0 800 l 1
 480 800 l 1
EndSplineSet
Validated: 1
EndChar

StartChar: a
Encoding: 97 97 51
Width: 451
VWidth: 1365
Flags: HW
LayerCount: 2
Fore
SplineSet
165 533 m 0
 210.333333333 533 249 517 281 485 c 128
 313 453 329 414.333333333 329 369 c 2
 329 135 l 2
 329 117 331.833333333 105 337.5 99 c 128
 343.166666667 93 346.333333333 89.6666666667 347 89 c 2
 347 0 l 1
 324.333333333 6.66666666667 308 15 298 25 c 128
 288 35 281.666666667 42 279 46 c 1
 247 15.3333333333 208.333333333 0 163 0 c 256
 118.333333333 0 80 16 48 48 c 128
 16 80 0 119 0 165 c 0
 0 210.333333333 16 249 48 281 c 128
 80 313 119 329 165 329 c 2
 249 329 l 1
 249 369 l 2
 249 392.333333333 240.666666667 412.166666667 224 428.5 c 128
 207.333333333 444.833333333 187.333333333 453 164 453 c 128
 140.666666667 453 120.833333333 444.833333333 104.5 428.5 c 128
 88.1666666667 412.166666667 80 392.333333333 80 369 c 1
 0 369 l 1
 0 415 16 453.833333333 48 485.5 c 128
 80 517.166666667 119 533 165 533 c 0
104.5 224 m 128
 88.1666666667 207.333333333 80 187.333333333 80 164 c 128
 80 140.666666667 88.1666666667 120.833333333 104.5 104.5 c 128
 120.833333333 88.1666666667 140.666666667 80 164 80 c 128
 187.333333333 80 207.333333333 88.1666666667 224 104.5 c 128
 240.666666667 120.833333333 249 141 249 165 c 2
 249 249 l 1
 159 249 l 2
 139 249 120.833333333 240.666666667 104.5 224 c 128
EndSplineSet
Validated: 1
EndChar

StartChar: b
Encoding: 98 98 52
Width: 432
VWidth: 1365
Flags: HW
LayerCount: 2
Fore
SplineSet
80 0 m 1
 0 0 l 1
 0 800 l 1
 80 800 l 1
 80 511 l 1
 104.666666667 526.333333333 132.666666667 533.666666667 164 533 c 0
 210 533 249 517 281 485 c 128
 313 453 329 414.333333333 329 369 c 2
 329 165 l 2
 329 119 313 80 281 48 c 128
 249 16 210 0 164 0 c 0
 132.666666667 0 104.666666667 7.66666666667 80 23 c 1
 80 0 l 1
105 105 m 256
 121.666666667 88.3333333333 141.5 80 164.5 80 c 128
 187.5 80 207.333333333 88.1666666667 224 104.5 c 128
 240.666666667 120.833333333 249 141 249 165 c 2
 249 369 l 2
 249 392.333333333 240.666666667 412.166666667 224 428.5 c 128
 207.333333333 444.833333333 187.333333333 453 164 453 c 128
 140.666666667 453 121 445 105 429 c 256
 88.3333333333 412.333333333 80 392.333333333 80 369 c 2
 80 165 l 2
 80 141.666666667 88.3333333333 121.666666667 105 105 c 256
EndSplineSet
Validated: 33
EndChar

StartChar: c
Encoding: 99 99 53
Width: 432
VWidth: 1365
Flags: HW
LayerCount: 2
Fore
SplineSet
80 165 m 2
 80 141.666666667 88.1666666667 121.666666667 104.5 105 c 128
 120.833333333 88.3333333333 140.666666667 80 164 80 c 128
 187.333333333 80 207.333333333 88.1666666667 224 104.5 c 128
 240.666666667 120.833333333 249 141 249 165 c 1
 329 165 l 1
 329 119 313 80 281 48 c 128
 249 16 210 0 164 0 c 0
 118.666666667 0 80 16 48 48 c 128
 16 80 0 119 0 165 c 2
 0 369 l 2
 0 415 16 453.833333333 48 485.5 c 128
 80 517.166666667 118.666666667 533 164 533 c 0
 210 533 249 517 281 485 c 128
 313 453 329 414.333333333 329 369 c 1
 249 369 l 1
 249 392.333333333 240.666666667 412.166666667 224 428.5 c 128
 207.333333333 444.833333333 187.333333333 453 164 453 c 128
 140.666666667 453 120.833333333 444.833333333 104.5 428.5 c 128
 88.1666666667 412.166666667 80 392.333333333 80 369 c 2
 80 165 l 2
EndSplineSet
Validated: 1
EndChar

StartChar: d
Encoding: 100 100 54
Width: 432
VWidth: 1365
Flags: HW
LayerCount: 2
Fore
SplineSet
249 23 m 1
 224.333333333 7.66666666667 196.333333333 0 165 0 c 0
 119 0 80 16 48 48 c 128
 16 80 0 119 0 165 c 2
 0 369 l 2
 0 415 16 453.833333333 48 485.5 c 128
 80 517.166666667 119 533 165 533 c 0
 196.333333333 533 224.333333333 525.666666667 249 511 c 1
 249 800 l 1
 329 800 l 1
 329 0 l 1
 249 0 l 1
 249 23 l 1
249 165 m 2
 249 369 l 2
 249 392.333333333 240.666666667 412.333333333 224 429 c 256
 207.333333333 445.666666667 187.333333333 453.833333333 164 453.5 c 128
 140.666666667 453.166666667 120.833333333 444.833333333 104.5 428.5 c 128
 88.1666666667 412.166666667 80 392.333333333 80 369 c 2
 80 165 l 2
 80 141.666666667 88.1666666667 121.666666667 104.5 105 c 128
 120.833333333 88.3333333333 140.666666667 80 164 80 c 128
 187.333333333 80 207.333333333 88.3333333333 224 105 c 256
 240.666666667 121.666666667 249 141.666666667 249 165 c 2
EndSplineSet
Validated: 33
EndChar

StartChar: e
Encoding: 101 101 55
Width: 432
VWidth: 1365
Flags: HW
LayerCount: 2
Fore
SplineSet
80 165 m 2
 80 141.666666667 88.1666666667 121.666666667 104.5 105 c 128
 120.833333333 88.3333333333 140.666666667 80 164 80 c 128
 187.333333333 80 207.333333333 88.1666666667 224 104.5 c 128
 240.666666667 120.833333333 249 141 249 165 c 1
 329 165 l 1
 329 119 313 80 281 48 c 128
 249 16 210 0 164 0 c 0
 118.666666667 0 80 16 48 48 c 128
 16 80 0 119 0 165 c 2
 0 369 l 2
 0 415 16 453.833333333 48 485.5 c 128
 80 517.166666667 118.666666667 533 164 533 c 0
 210 533 249 517 281 485 c 128
 313 453 329 414.333333333 329 369 c 2
 329 227 l 1
 80 227 l 1
 80 165 l 2
249 369 m 2
 249 392.333333333 240.666666667 412.166666667 224 428.5 c 128
 207.333333333 444.833333333 187.333333333 453 164 453 c 128
 140.666666667 453 120.833333333 444.833333333 104.5 428.5 c 128
 88.1666666667 412.166666667 80 392.333333333 80 369 c 2
 80 307 l 1
 249 307 l 1
 249 369 l 2
EndSplineSet
Validated: 1
EndChar

StartChar: f
Encoding: 102 102 56
Width: 309
VWidth: 1365
Flags: HW
LayerCount: 2
Fore
SplineSet
205 453 m 1
 205 533 l 1
 143 533 l 1
 143 664 l 2
 143 679.333333333 148.5 692.5 159.5 703.5 c 128
 170.5 714.5 183.666666667 720 199 720 c 2
 205 720 l 1
 205 800 l 1
 199 800 l 2
 161 800 128.833333333 786.666666667 102.5 760 c 128
 76.1666666667 733.333333333 63 701.333333333 63 664 c 2
 63 533 l 1
 0 533 l 1
 0 453 l 1
 63 453 l 1
 63 0 l 1
 143 0 l 1
 143 453 l 1
 205 453 l 1
EndSplineSet
Validated: 9
EndChar

StartChar: g
Encoding: 103 103 57
Width: 432
VWidth: 1365
Flags: HW
LayerCount: 2
Fore
SplineSet
224 429 m 256
 207.333333333 445.666666667 187.333333333 453.833333333 164 453.5 c 128
 140.666666667 453.166666667 120.833333333 444.833333333 104.5 428.5 c 128
 88.1666666667 412.166666667 80 392.333333333 80 369 c 2
 80 165 l 2
 80 141.666666667 88.1666666667 121.666666667 104.5 105 c 128
 120.833333333 88.3333333333 140.666666667 80 164 80 c 128
 187.333333333 80 207.333333333 88.3333333333 224 105 c 256
 240.666666667 121.666666667 249 141.666666667 249 165 c 2
 249 369 l 2
 249 392.333333333 240.666666667 412.333333333 224 429 c 256
249 -131 m 2
 249 23 l 1
 224.333333333 7.66666666667 196.333333333 0 165 0 c 0
 119 0 80 16 48 48 c 128
 16 80 0 119 0 165 c 2
 0 369 l 2
 0 415 16 453.833333333 48 485.5 c 128
 80 517.166666667 119 533 165 533 c 0
 196.333333333 533 224.333333333 525.666666667 249 511 c 1
 249 533 l 1
 329 533 l 1
 329 -131 l 2
 329 -168.333333333 315.666666667 -200.333333333 289 -227 c 128
 262.333333333 -253.666666667 230.333333333 -267 193 -267 c 2
 165 -267 l 1
 165 -187 l 1
 193 -187 l 2
 208.333333333 -187 221.5 -181.5 232.5 -170.5 c 128
 243.5 -159.5 249 -146.333333333 249 -131 c 2
EndSplineSet
Validated: 33
EndChar

StartChar: h
Encoding: 104 104 58
Width: 432
VWidth: 1365
Flags: HW
LayerCount: 2
Fore
SplineSet
329 369 m 2
 329 0 l 1
 249 0 l 1
 249 369 l 2
 248.333333333 393 239.833333333 413 223.5 429 c 128
 207.166666667 445 187 453 163 453 c 0
 139.666666667 453 120 445 104 429 c 0
 90 415 82 399 80 381 c 1
 80 0 l 1
 0 0 l 1
 0 800 l 1
 80 800 l 1
 80 511 l 1
 104.666666667 526.333333333 132.333333333 533.666666667 163 533 c 0
 209 533 248.166666667 517.166666667 280.5 485.5 c 128
 312.833333333 453.833333333 329 415 329 369 c 2
EndSplineSet
Validated: 33
EndChar

StartChar: i
Encoding: 105 105 59
Width: 183
VWidth: 1365
Flags: HW
LayerCount: 2
Fore
SplineSet
80 369 m 1
 80 0 l 1
 0 0 l 1
 0 369 l 1
 80 369 l 1
40 573 m 256
 46.6666666667 573 53.1666666667 571.333333333 59.5 568 c 128
 65.8333333333 564.666666667 70.8333333333 559.833333333 74.5 553.5 c 128
 78.1666666667 547.166666667 80 540.333333333 80 533 c 256
 80 525.666666667 78.1666666667 519 74.5 513 c 128
 70.8333333333 507 66 502.166666667 60 498.5 c 128
 54 494.833333333 47.3333333333 493 40 493 c 256
 32.6666666667 493 26 494.833333333 20 498.5 c 128
 14 502.166666667 9.16666666667 507.166666667 5.5 513.5 c 128
 1.83333333333 519.833333333 0 526.333333333 0 533 c 256
 0 540.333333333 1.83333333333 547.166666667 5.5 553.5 c 128
 9.16666666667 559.833333333 14.1666666667 564.666666667 20.5 568 c 128
 26.8333333333 571.333333333 33.3333333333 573 40 573 c 256
EndSplineSet
Validated: 1
EndChar

StartChar: j
Encoding: 106 106 60
Width: 246
VWidth: 1365
Flags: HW
LayerCount: 2
Fore
SplineSet
99 738 m 256
 105.666666667 738 112.333333333 736.333333333 119 733 c 128
 125.666666667 729.666666667 130.666666667 724.666666667 134 718 c 128
 137.333333333 711.333333333 139 704.666666667 139 698 c 256
 139 690.666666667 137.333333333 684 134 678 c 128
 130.666666667 672 125.833333333 667.166666667 119.5 663.5 c 128
 113.166666667 659.833333333 106.333333333 658 99 658 c 256
 91.6666666667 658 85 659.833333333 79 663.5 c 128
 73 667.166666667 68.1666666667 672 64.5 678 c 128
 60.8333333333 684 59 690.666666667 59 698 c 256
 59 705.333333333 60.8333333333 712.166666667 64.5 718.5 c 128
 68.1666666667 724.833333333 73.1666666667 729.666666667 79.5 733 c 128
 85.8333333333 736.333333333 92.3333333333 738 99 738 c 256
143 533 m 1
 63 533 l 1
 63 -131 l 2
 63 -146.333333333 57.3333333333 -159.5 46 -170.5 c 128
 34.6666666667 -181.5 21.6666666667 -187 7 -187 c 2
 0 -187 l 1
 0 -267 l 1
 7 -267 l 2
 45 -267 77.1666666667 -253.666666667 103.5 -227 c 128
 129.833333333 -200.333333333 143 -168.333333333 143 -131 c 2
 143 533 l 1
EndSplineSet
Validated: 9
EndChar

StartChar: k
Encoding: 107 107 61
Width: 432
VWidth: 1365
Flags: HW
LayerCount: 2
Fore
SplineSet
80 800 m 1
 80 304 l 1
 233 533 l 1
 329 533 l 1
 222 373 l 1
 329 0 l 1
 245 0 l 1
 164 286 l 1
 80 160 l 1
 80 0 l 1
 0 0 l 1
 0 800 l 1
 80 800 l 1
EndSplineSet
Validated: 1
EndChar

StartChar: l
Encoding: 108 108 62
Width: 246
VWidth: 1365
Flags: HW
LayerCount: 2
Fore
SplineSet
0 136 m 2
 0 98 13.1666666667 65.8333333333 39.5 39.5 c 128
 65.8333333333 13.1666666667 98 0 136 0 c 2
 143 0 l 1
 143 80 l 1
 136 80 l 2
 120.666666667 80 107.5 85.5 96.5 96.5 c 128
 85.5 107.5 80 120.666666667 80 136 c 2
 80 800 l 1
 0 800 l 1
 0 136 l 2
EndSplineSet
Validated: 9
EndChar

StartChar: m
Encoding: 109 109 63
Width: 592
VWidth: 1365
Flags: HW
LayerCount: 2
Fore
SplineSet
489 397 m 2
 489 0 l 1
 409 0 l 1
 409 397 l 2
 409 412.333333333 403.5 425.5 392.5 436.5 c 128
 381.5 447.5 368.333333333 453 353 453 c 0
 337.666666667 453 324.5 447.666666667 313.5 437 c 128
 302.5 426.333333333 297 413 297 397 c 2
 297 0 l 1
 217 0 l 1
 217 397 l 2
 217 412.333333333 211.5 425.5 200.5 436.5 c 128
 189.5 447.5 176.333333333 453 161 453 c 0
 145.666666667 453 132.5 447.666666667 121.5 437 c 128
 110.5 426.333333333 105 413 105 397 c 2
 105 0 l 1
 25 0 l 1
 25 401 l 2
 25 416.333333333 19.3333333333 429.333333333 8 440 c 0
 6 442.666666667 3.33333333333 445 0 447 c 1
 0 533 l 1
 24.6666666667 527.666666667 46.3333333333 515.666666667 65 497 c 0
 65.6666666667 496.333333333 66 495.666666667 66 495 c 0
 92 520.333333333 123.666666667 533 161 533 c 0
 199 533 231 520 257 494 c 1
 283 520 315 533 353 533 c 256
 391 533 423.166666667 519.833333333 449.5 493.5 c 128
 475.833333333 467.166666667 489 435 489 397 c 2
EndSplineSet
Validated: 1
EndChar

StartChar: n
Encoding: 110 110 64
Width: 451
VWidth: 1365
Flags: HW
LayerCount: 2
Fore
SplineSet
51 499 m 0
 56.3333333333 493.666666667 61 488.333333333 65 483 c 1
 66 484 66 484 67 485 c 0
 99 517 137.666666667 533 183 533 c 0
 228.333333333 533 267 517 299 485 c 128
 331 453 347 414.333333333 347 369 c 2
 347 0 l 1
 267 0 l 1
 267 369 l 2
 267 392.333333333 258.833333333 412.166666667 242.5 428.5 c 128
 226.166666667 444.833333333 206.333333333 453 183 453 c 128
 159.666666667 453 139.833333333 444.833333333 123.5 428.5 c 128
 107.166666667 412.166666667 99 392.333333333 99 369 c 2
 99 0 l 1
 19 0 l 1
 19 383 l 2
 19 403.666666667 12.6666666667 421.333333333 0 436 c 1
 0 533 l 1
 18.6666666667 525.666666667 35.6666666667 514.333333333 51 499 c 0
EndSplineSet
Validated: 1
EndChar

StartChar: o
Encoding: 111 111 65
Width: 432
VWidth: 1365
Flags: HW
LayerCount: 2
Fore
SplineSet
80 165 m 2
 80 141.666666667 88.1666666667 121.666666667 104.5 105 c 128
 120.833333333 88.3333333333 140.666666667 80 164 80 c 128
 187.333333333 80 207.333333333 88.1666666667 224 104.5 c 128
 240.666666667 120.833333333 249 141 249 165 c 2
 249 369 l 2
 249 392.333333333 240.666666667 412.166666667 224 428.5 c 128
 207.333333333 444.833333333 187.333333333 453 164 453 c 128
 140.666666667 453 120.833333333 444.833333333 104.5 428.5 c 128
 88.1666666667 412.166666667 80 392.333333333 80 369 c 2
 80 165 l 2
329 165 m 2
 329 119 313 80 281 48 c 128
 249 16 210 0 164 0 c 0
 118.666666667 0 80 16 48 48 c 128
 16 80 0 119 0 165 c 2
 0 369 l 2
 0 415 16 453.833333333 48 485.5 c 128
 80 517.166666667 118.666666667 533 164 533 c 0
 210 533 249 517 281 485 c 128
 313 453 329 414.333333333 329 369 c 2
 329 165 l 2
EndSplineSet
Validated: 1
EndChar

StartChar: p
Encoding: 112 112 66
Width: 432
VWidth: 1365
Flags: HW
LayerCount: 2
Fore
SplineSet
80 511 m 1
 104.666666667 526.333333333 132.666666667 533.666666667 164 533 c 0
 210 533 249 517 281 485 c 128
 313 453 329 414.333333333 329 369 c 2
 329 165 l 2
 329 119 313 80 281 48 c 128
 249 16 210 0 164 0 c 0
 132.666666667 0 104.666666667 7.66666666667 80 23 c 1
 80 -267 l 1
 0 -267 l 1
 0 533 l 1
 80 533 l 1
 80 511 l 1
80 369 m 2
 80 165 l 2
 80 141.666666667 88.3333333333 121.666666667 105 105 c 256
 121.666666667 88.3333333333 141.5 80 164.5 80 c 128
 187.5 80 207.333333333 88.1666666667 224 104.5 c 128
 240.666666667 120.833333333 249 141 249 165 c 2
 249 369 l 2
 249 392.333333333 240.666666667 412.166666667 224 428.5 c 128
 207.333333333 444.833333333 187.333333333 453 164 453 c 128
 140.666666667 453 121 445 105 429 c 256
 88.3333333333 412.333333333 80 392.333333333 80 369 c 2
EndSplineSet
Validated: 33
EndChar

StartChar: q
Encoding: 113 113 67
Width: 432
VWidth: 1365
Flags: HW
LayerCount: 2
Fore
SplineSet
224 429 m 256
 207.333333333 445.666666667 187.333333333 453.833333333 164 453.5 c 128
 140.666666667 453.166666667 120.833333333 444.833333333 104.5 428.5 c 128
 88.1666666667 412.166666667 80 392.333333333 80 369 c 2
 80 165 l 2
 80 141.666666667 88.1666666667 121.666666667 104.5 105 c 128
 120.833333333 88.3333333333 140.666666667 80 164 80 c 128
 187.333333333 80 207.333333333 88.3333333333 224 105 c 256
 240.666666667 121.666666667 249 141.666666667 249 165 c 2
 249 369 l 2
 249 392.333333333 240.666666667 412.333333333 224 429 c 256
249 -131 m 2
 249 23 l 1
 224.333333333 7.66666666667 196.333333333 0 165 0 c 0
 119 0 80 16 48 48 c 128
 16 80 0 119 0 165 c 2
 0 369 l 2
 0 415 16 453.833333333 48 485.5 c 128
 80 517.166666667 119 533 165 533 c 0
 196.333333333 533 224.333333333 525.666666667 249 511 c 1
 249 533 l 1
 329 533 l 1
 329 -131 l 2
 329 -168.333333333 315.666666667 -200.333333333 289 -227 c 128
 262.333333333 -253.666666667 230.333333333 -267 193 -267 c 2
 165 -267 l 1
 165 -187 l 1
 193 -187 l 2
 208.333333333 -187 221.5 -181.5 232.5 -170.5 c 128
 243.5 -159.5 249 -146.333333333 249 -131 c 2
EndSplineSet
Validated: 33
EndChar

StartChar: r
Encoding: 114 114 68
Width: 432
VWidth: 1365
Flags: HW
LayerCount: 2
Fore
SplineSet
80 207 m 2
 80 0 l 1
 0 0 l 1
 0 533 l 1
 80 533 l 1
 80 420 l 1
 84.6666666667 426 90 431.666666667 96 437 c 0
 159.333333333 501 237 533 329 533 c 1
 329 453 l 1
 259.666666667 453 201 429 153 381 c 0
 104.333333333 333.666666667 80 275.666666667 80 207 c 2
EndSplineSet
Validated: 1
EndChar

StartChar: s
Encoding: 115 115 69
Width: 432
VWidth: 1365
Flags: HW
LayerCount: 2
Fore
SplineSet
256.5 495 m 128
 282.166666667 469.666666667 295 439 295 403 c 1
 215 403 l 1
 215 417 210 428.833333333 200 438.5 c 128
 190 448.166666667 178 453 164 453 c 128
 150 453 138.166666667 448.166666667 128.5 438.5 c 128
 118.833333333 428.833333333 114 417.166666667 114 403.5 c 128
 114 389.833333333 117.5 379.5 124.5 372.5 c 128
 131.5 365.5 137.333333333 360.666666667 142 358 c 2
 237 312 l 2
 253.666666667 304 273.166666667 288.833333333 295.5 266.5 c 128
 317.833333333 244.166666667 329 210.333333333 329 165 c 0
 329 119 313 80 281 48 c 128
 249 16 210 0 164 0 c 0
 118.666666667 0 80 16 48 48 c 128
 16 80 0 119 0 165 c 1
 80 165 l 1
 80 141.666666667 84.1666666667 121.666666667 92.5 105 c 128
 100.833333333 88.3333333333 120.666666667 80 152 80 c 128
 183.333333333 80 207.333333333 88.1666666667 224 104.5 c 128
 240.666666667 120.833333333 249 140.666666667 249 164 c 128
 249 187.333333333 243.166666667 204.833333333 231.5 216.5 c 128
 219.833333333 228.166666667 209.666666667 236 201 240 c 2
 107 286 l 2
 93.6666666667 292.666666667 78.1666666667 304.833333333 60.5 322.5 c 128
 42.8333333333 340.166666667 34 367 34 403 c 128
 34 439 46.8333333333 469.666666667 72.5 495 c 128
 98.1666666667 520.333333333 128.666666667 533 164 533 c 0
 200 533 230.833333333 520.333333333 256.5 495 c 128
EndSplineSet
Validated: 1
EndChar

StartChar: t
Encoding: 116 116 70
Width: 309
VWidth: 1365
Flags: HW
LayerCount: 2
Fore
SplineSet
205 453 m 1
 205 533 l 1
 143 533 l 1
 143 800 l 1
 63 800 l 1
 63 533 l 1
 0 533 l 1
 0 453 l 1
 63 453 l 1
 63 136 l 2
 63 98 76.1666666667 65.8333333333 102.5 39.5 c 128
 128.833333333 13.1666666667 161 0 199 0 c 2
 205 0 l 1
 205 80 l 1
 199 80 l 2
 183.666666667 80 170.5 85.5 159.5 96.5 c 128
 148.5 107.5 143 120.666666667 143 136 c 2
 143 453 l 1
 205 453 l 1
EndSplineSet
Validated: 9
EndChar

StartChar: u
Encoding: 117 117 71
Width: 451
VWidth: 1365
Flags: HW
LayerCount: 2
Fore
SplineSet
297 34 m 0
 291.666666667 39.3333333333 287 44.6666666667 283 50 c 1
 282 49 282 49 281 48 c 0
 249 16 210 0 164 0 c 0
 118.666666667 0 80 16 48 48 c 128
 16 80 0 119 0 165 c 2
 0 533 l 1
 80 533 l 1
 80 165 l 2
 80 141.666666667 88.1666666667 121.666666667 104.5 105 c 128
 120.833333333 88.3333333333 140.666666667 80 164 80 c 128
 187.333333333 80 207.333333333 88.1666666667 224 104.5 c 128
 240.666666667 120.833333333 249 141 249 165 c 2
 249 533 l 1
 329 533 l 1
 329 151 l 2
 329 130.333333333 335 112.333333333 347 97 c 1
 347 0 l 1
 329 7.33333333333 312.333333333 18.6666666667 297 34 c 0
EndSplineSet
Validated: 1
EndChar

StartChar: v
Encoding: 118 118 72
Width: 432
VWidth: 1365
Flags: HW
LayerCount: 2
Fore
SplineSet
0 533 m 1
 81 533 l 1
 165 113 l 1
 247 533 l 1
 329 533 l 1
 224 0 l 1
 105 0 l 1
 0 533 l 1
EndSplineSet
Validated: 1
EndChar

StartChar: w
Encoding: 119 119 73
Width: 592
VWidth: 1365
Flags: HW
LayerCount: 2
Fore
SplineSet
0 533 m 1
 69 0 l 1
 124 0 l 1
 245 305 l 1
 365 0 l 1
 419 0 l 1
 489 533 l 1
 426 533 l 1
 367 213 l 1
 272 453 l 1
 217 453 l 1
 122 213 l 1
 72 533 l 1
 0 533 l 1
EndSplineSet
Validated: 9
EndChar

StartChar: x
Encoding: 120 120 74
Width: 432
VWidth: 1365
Flags: HW
LayerCount: 2
Fore
SplineSet
88 533 m 1
 165 364 l 1
 241 533 l 1
 329 533 l 1
 208 267 l 1
 329 0 l 1
 241 0 l 1
 165 169 l 1
 88 0 l 1
 0 0 l 1
 116 267 l 1
 0 533 l 1
 88 533 l 1
EndSplineSet
Validated: 1
EndChar

StartChar: y
Encoding: 121 121 75
Width: 432
VWidth: 1365
Flags: HW
LayerCount: 2
Fore
SplineSet
123 -1 m 1
 0 533 l 1
 82 533 l 1
 165 167 l 1
 247 533 l 1
 329 533 l 1
 175 -152 l 1
 170.333333333 -180.666666667 157.666666667 -205.666666667 137 -227 c 0
 110.333333333 -253.666666667 78 -267 40 -267 c 1
 40 -187 l 1
 55.3333333333 -187 68.3333333333 -181.333333333 79 -170 c 0
 87 -162 92.3333333333 -153 95 -143 c 2
 123 -1 l 1
EndSplineSet
Validated: 1
EndChar

StartChar: z
Encoding: 122 122 76
Width: 432
VWidth: 1365
Flags: HW
LayerCount: 2
Fore
SplineSet
0 532 m 1
 329 532 l 1
 329 428 l 1
 80 80 l 1
 329 80 l 1
 329 -1 l 1
 0 -1 l 1
 0 105 l 1
 238 453 l 1
 0 453 l 1
 0 532 l 1
EndSplineSet
Validated: 1
EndChar

StartChar: asciitilde
Encoding: 126 126 77
Width: 599
VWidth: 1365
Flags: HW
LayerCount: 2
Fore
SplineSet
143 536 m 256
 183.666666667 536 220.666666667 519 254 485 c 1
 324 405 l 2
 346 383 370.166666667 372 396.5 372 c 128
 422.833333333 372 442.666666667 378.666666667 456 392 c 128
 469.333333333 405.333333333 478.333333333 417.333333333 483 428 c 1
 539 428 l 1
 531.666666667 403.333333333 516.166666667 379.166666667 492.5 355.5 c 128
 468.833333333 331.833333333 436.666666667 320 396 320 c 256
 355.333333333 320 318.333333333 337 285 371 c 1
 215 451 l 2
 193 473 168.833333333 484 142.5 484 c 128
 116.166666667 484 96.3333333333 477.333333333 83 464 c 128
 69.6666666667 450.666666667 60.3333333333 438.666666667 55 428 c 1
 0 428 l 1
 7.33333333333 452.666666667 22.8333333333 476.833333333 46.5 500.5 c 128
 70.1666666667 524.166666667 102.333333333 536 143 536 c 256
EndSplineSet
Validated: 1
EndChar

StartChar: degree
Encoding: 176 176 78
Width: 119
VWidth: 1365
Flags: HW
LayerCount: 2
Fore
SplineSet
0 880 m 256
 22 880 40.8333333333 872.166666667 56.5 856.5 c 128
 72.1666666667 840.833333333 80 822 80 800 c 256
 80 778 72.1666666667 759.166666667 56.5 743.5 c 128
 40.8333333333 727.833333333 22 720 0 720 c 0
 -22 720 -40.8333333333 727.666666667 -56.5 743 c 128
 -72.1666666667 758.333333333 -80 777.333333333 -80 800 c 256
 -80 822 -72.1666666667 840.833333333 -56.5 856.5 c 128
 -40.8333333333 872.166666667 -22 880 0 880 c 256
0 828 m 0
 -7.33333333333 828 -13.8333333333 825.333333333 -19.5 820 c 128
 -25.1666666667 814.666666667 -28 808 -28 800 c 0
 -28 792.666666667 -25.1666666667 786.166666667 -19.5 780.5 c 128
 -13.8333333333 774.833333333 -7.33333333333 772 0 772 c 256
 7.33333333333 772 13.8333333333 774.666666667 19.5 780 c 128
 25.1666666667 785.333333333 28 792 28 800 c 0
 28 808 25.3333333333 814.666666667 20 820 c 128
 14.6666666667 825.333333333 8 828 0 828 c 0
EndSplineSet
Validated: 1
EndChar

StartChar: bullet
Encoding: 8226 8226 79
Width: 359
VWidth: 1365
Flags: HW
LayerCount: 2
Fore
SplineSet
120 520 m 256
 153.333333333 520 181.666666667 508.333333333 205 485 c 128
 228.333333333 461.666666667 240 433.333333333 240 400 c 256
 240 366.666666667 228.333333333 338.333333333 205 315 c 128
 181.666666667 291.666666667 153.333333333 280 120 280 c 256
 86.6666666667 280 58.3333333333 291.666666667 35 315 c 128
 11.6666666667 338.333333333 0 366.666666667 0 400 c 256
 0 433.333333333 11.6666666667 461.666666667 35 485 c 128
 58.3333333333 508.333333333 86.6666666667 520 120 520 c 256
120 469 m 0
 101.333333333 469 85.3333333333 462.333333333 72 449 c 128
 58.6666666667 435.666666667 52 419.666666667 52 401 c 0
 52 381.666666667 58.6666666667 365.333333333 72 352 c 128
 85.3333333333 338.666666667 101.333333333 332 120 332 c 256
 138.666666667 332 154.666666667 338.666666667 168 352 c 128
 181.333333333 365.333333333 188 381.666666667 188 401 c 0
 188 419.666666667 181.5 435.666666667 168.5 449 c 128
 155.5 462.333333333 139.333333333 469 120 469 c 0
EndSplineSet
Validated: 1
EndChar

StartChar: plusminus
Encoding: 177 177 80
Width: 599
VWidth: 1365
Flags: HW
LayerCount: 2
Fore
SplineSet
0 147 m 1
 480 147 l 1
 480 95 l 1
 0 95 l 1
 0 147 l 1
266 705 m 1
 266 491 l 1
 480 491 l 1
 480 439 l 1
 266 439 l 1
 266 225 l 1
 214 225 l 1
 214 439 l 1
 0 439 l 1
 0 491 l 1
 214 491 l 1
 214 705 l 1
 266 705 l 1
EndSplineSet
Validated: 1
EndChar

StartChar: lessequal
Encoding: 8804 8804 81
Width: 599
VWidth: 1365
Flags: HW
LayerCount: 2
Fore
SplineSet
480 79 m 1
 0 319 l 1
 0 377 l 1
 480 137 l 1
 480 79 l 1
0 481 m 1
 480 721 l 1
 480 663 l 1
 116 481 l 1
 480 299 l 1
 480 241 l 1
 0 481 l 1
EndSplineSet
Validated: 1
EndChar

StartChar: greaterequal
Encoding: 8805 8805 82
Width: 599
VWidth: 1365
Flags: HW
LayerCount: 2
Fore
SplineSet
0 137 m 1
 480 377 l 1
 480 319 l 1
 0 79 l 1
 0 137 l 1
0 241 m 1
 0 299 l 1
 364 481 l 1
 0 663 l 1
 0 721 l 1
 480 481 l 1
 0 241 l 1
EndSplineSet
Validated: 1
EndChar

StartChar: yen
Encoding: 165 165 83
Width: 1079
VWidth: 1365
Flags: HW
LayerCount: 2
Fore
SplineSet
661 90 m 2
 668.333333333 82.6666666667 676.666666667 76.6666666667 686 72 c 0
 709.333333333 58.6666666667 734 52 760 52 c 256
 786 52 810.5 58.5 833.5 71.5 c 128
 856.5 84.5 874.666666667 102.666666667 888 126 c 128
 901.333333333 149.333333333 908 174 908 200 c 256
 908 226 901.333333333 250.833333333 888 274.5 c 128
 874.666666667 298.166666667 856.166666667 316.333333333 832.5 329 c 128
 808.833333333 341.666666667 784.666666667 348 760 348 c 256
 735.333333333 348 711 341.666666667 687 329 c 0
 675.666666667 322.333333333 665.333333333 314.666666667 656 306 c 2
 522 201 l 1
 661 90 l 2
480 168 m 1
 341 57 l 2
 328.333333333 45 314.666666667 35 300 27 c 0
 268 9 234.666666667 0 200 0 c 256
 165.333333333 0 132.166666667 8.83333333333 100.5 26.5 c 128
 68.8333333333 44.1666666667 44.1666666667 68.8333333333 26.5 100.5 c 128
 8.83333333333 132.166666667 0 165.333333333 0 200 c 256
 0 234.666666667 9 268.166666667 27 300.5 c 128
 45 332.833333333 69.8333333333 357.5 101.5 374.5 c 128
 133.166666667 391.5 166 400 200 400 c 0
 233.333333333 400 266 391.666666667 298 375 c 0
 310.666666667 367.666666667 322.333333333 359.666666667 333 351 c 2
 480 235 l 1
 627 351 l 2
 637.666666667 359.666666667 649.333333333 367.666666667 662 375 c 0
 694 391.666666667 726.666666667 400 760 400 c 0
 794 400 826.833333333 391.5 858.5 374.5 c 128
 890.166666667 357.5 915 332.833333333 933 300.5 c 128
 951 268.166666667 960 234.666666667 960 200 c 256
 960 165.333333333 951.166666667 132.166666667 933.5 100.5 c 128
 915.833333333 68.8333333333 891.166666667 44.1666666667 859.5 26.5 c 128
 827.833333333 8.83333333333 794.666666667 0 760 0 c 256
 725.333333333 0 692.333333333 9 661 27 c 0
 645.666666667 35.6666666667 631.666666667 45.6666666667 619 57 c 2
 480 168 l 1
438 201 m 1
 304 306 l 2
 294.666666667 314.666666667 284.333333333 322.333333333 273 329 c 0
 249.666666667 341.666666667 225.333333333 348 200 348 c 256
 175.333333333 348 151.166666667 341.666666667 127.5 329 c 128
 103.833333333 316.333333333 85.3333333333 298.166666667 72 274.5 c 128
 58.6666666667 250.833333333 52 226 52 200 c 256
 52 174 58.5 149.333333333 71.5 126 c 128
 84.5 102.666666667 102.666666667 84.5 126 71.5 c 128
 149.333333333 58.5 174 52 200 52 c 256
 226 52 250.666666667 58.6666666667 274 72 c 0
 283.333333333 76.6666666667 291.666666667 82.6666666667 299 90 c 2
 438 201 l 1
EndSplineSet
Validated: 1
EndChar

StartChar: summation
Encoding: 8721 8721 84
Width: 599
VWidth: 1365
Flags: HW
LayerCount: 2
Fore
SplineSet
480 800 m 1
 480 700 l 1
 117 700 l 1
 296 400 l 1
 117 100 l 1
 480 100 l 1
 480 0 l 1
 0 0 l 1
 0 100 l 1
 179 400 l 1
 0 700 l 1
 0 800 l 1
 480 800 l 1
EndSplineSet
Validated: 1
EndChar

StartChar: Omega
Encoding: 8486 8486 85
Width: 939
VWidth: 1365
Flags: HW
LayerCount: 2
Fore
SplineSet
410 800 m 256
 490 800 558.333333333 771.666666667 615 715 c 128
 671.666666667 658.333333333 700 590 700 510 c 128
 700 430 684.166666667 374.166666667 652.5 342.5 c 128
 620.833333333 310.833333333 601.333333333 292 594 286 c 1
 594 100 l 1
 820 100 l 1
 820 0 l 1
 494 0 l 1
 494 339 l 1
 522 353 l 1
 574 405 600 457.333333333 600 510 c 128
 600 562.666666667 581.5 607.5 544.5 644.5 c 128
 507.5 681.5 462.666666667 700 410 700 c 0
 358.666666667 700 314.166666667 681.5 276.5 644.5 c 128
 238.833333333 607.5 220 562.666666667 220 510 c 128
 220 457.333333333 246 405 298 353 c 1
 326 339 l 1
 326 0 l 1
 0 0 l 1
 0 100 l 1
 226 100 l 1
 226 286 l 1
 215 295 l 1
 150.333333333 359 118.333333333 430.833333333 119 510.5 c 128
 119.666666667 590.166666667 148.333333333 658.333333333 205 715 c 128
 261.666666667 771.666666667 330 800 410 800 c 256
EndSplineSet
Validated: 33
EndChar

StartChar: radical
Encoding: 8730 8730 86
Width: 999
VWidth: 1365
Flags: HW
LayerCount: 2
Fore
SplineSet
544 960 m 1
 880 960 l 1
 880 899 l 1
 585 899 l 1
 215 0 l 1
 104 0 l 1
 104 638 l 1
 0 638 l 1
 0 802 l 1
 215 802 l 1
 215 168 l 1
 218 168 l 1
 544 960 l 1
EndSplineSet
Validated: 1
EndChar

StartChar: approxequal
Encoding: 8776 8776 87
Width: 599
VWidth: 1365
Flags: HW
LayerCount: 2
Fore
SplineSet
185 576 m 2
 309 483 l 2
 325.666666667 470.333333333 346.166666667 464 370.5 464 c 128
 394.833333333 464 413.666666667 470.666666667 427 484 c 128
 440.333333333 497.333333333 449.333333333 509.333333333 454 520 c 1
 480 520 l 1
 474 503.333333333 462 485.833333333 444 467.5 c 128
 426 449.166666667 402 440 372 440 c 128
 342 440 316.333333333 448 295 464 c 2
 171 557 l 2
 154.333333333 569.666666667 133.833333333 576 109.5 576 c 128
 85.1666666667 576 66.3333333333 569.333333333 53 556 c 128
 39.6666666667 542.666666667 30.6666666667 530.666666667 26 520 c 1
 0 520 l 1
 6 536.666666667 18 554.166666667 36 572.5 c 128
 54 590.833333333 78.1666666667 600 108.5 600 c 128
 138.833333333 600 164.333333333 592 185 576 c 2
185 456 m 2
 309 363 l 2
 325.666666667 350.333333333 346.166666667 344 370.5 344 c 128
 394.833333333 344 413.666666667 350.666666667 427 364 c 128
 440.333333333 377.333333333 449.333333333 389.333333333 454 400 c 1
 480 400 l 1
 474 383.333333333 462 365.833333333 444 347.5 c 128
 426 329.166666667 402 320 372 320 c 128
 342 320 316.333333333 328 295 344 c 2
 171 437 l 2
 154.333333333 449.666666667 133.833333333 456 109.5 456 c 128
 85.1666666667 456 66.3333333333 449.333333333 53 436 c 128
 39.6666666667 422.666666667 30.6666666667 410.666666667 26 400 c 1
 0 400 l 1
 6 416.666666667 18 434.166666667 36 452.5 c 128
 54 470.833333333 78.1666666667 480 108.5 480 c 128
 138.833333333 480 164.333333333 472 185 456 c 2
EndSplineSet
Validated: 1
EndChar

StartChar: Delta
Encoding: 8710 8710 88
Width: 939
VWidth: 1365
Flags: HW
LayerCount: 2
Fore
SplineSet
820 0 m 1
 0 0 l 1
 410 800 l 1
 820 0 l 1
163 100 m 1
 657 100 l 1
 410 581 l 1
 163 100 l 1
EndSplineSet
Validated: 1
EndChar

StartChar: Alpha
Encoding: 913 913 89
Width: 599
VWidth: 1365
Flags: HW
LayerCount: 2
Fore
SplineSet
190 800 m 1
 290 800 l 1
 480 0 l 1
 377 0 l 1
 337 167 l 1
 143 167 l 1
 103 0 l 1
 0 0 l 1
 190 800 l 1
166 267 m 1
 314 267 l 1
 240 578 l 1
 166 267 l 1
EndSplineSet
Validated: 1
EndChar

StartChar: Beta
Encoding: 914 914 90
Width: 599
VWidth: 1365
Flags: HW
LayerCount: 2
Fore
SplineSet
0 800 m 1
 280 800 l 2
 335.333333333 800 382.5 780.333333333 421.5 741 c 128
 460.5 701.666666667 480 654.666666667 480 600 c 256
 480 544.666666667 453.666666667 490.666666667 401 438 c 1
 453.666666667 385.333333333 480 326 480 260 c 2
 480 240 l 2
 480 174 456.5 117.5 409.5 70.5 c 128
 362.5 23.5 306 0 240 0 c 2
 0 0 l 1
 0 800 l 1
100 700 m 1
 100 500 l 1
 280 500 l 2
 307.333333333 500 330.833333333 509.833333333 350.5 529.5 c 128
 370.166666667 549.166666667 380 572.666666667 380 600 c 128
 380 627.333333333 370.166666667 650.833333333 350.5 670.5 c 128
 330.833333333 690.166666667 307.333333333 700 280 700 c 2
 100 700 l 1
100 400 m 1
 100 100 l 1
 240 100 l 2
 278.666666667 100 311.666666667 113.666666667 339 141 c 128
 366.333333333 168.333333333 380 201.333333333 380 240 c 2
 380 260 l 2
 380 298.666666667 366.333333333 331.666666667 339 359 c 128
 311.666666667 386.333333333 278.666666667 400 240 400 c 2
 100 400 l 1
EndSplineSet
Validated: 1
EndChar

StartChar: Gamma
Encoding: 915 915 91
Width: 599
VWidth: 1365
Flags: HW
LayerCount: 2
Fore
SplineSet
480 800 m 1
 480 700 l 1
 100 700 l 1
 100 0 l 1
 0 0 l 1
 0 800 l 1
 480 800 l 1
EndSplineSet
Validated: 1
EndChar

StartChar: uni0394
Encoding: 916 916 92
Width: 939
VWidth: 1365
Flags: HW
LayerCount: 2
Fore
SplineSet
820 0 m 1
 0 0 l 1
 410 800 l 1
 820 0 l 1
163 100 m 1
 657 100 l 1
 410 581 l 1
 163 100 l 1
EndSplineSet
Validated: 1
EndChar

StartChar: Epsilon
Encoding: 917 917 93
Width: 599
VWidth: 1365
Flags: HW
LayerCount: 2
Fore
SplineSet
430 800 m 1
 430 700 l 1
 100 700 l 1
 100 500 l 1
 380 500 l 1
 380 400 l 1
 100 400 l 1
 100 100 l 1
 480 100 l 1
 480 0 l 1
 0 0 l 1
 0 800 l 1
 430 800 l 1
EndSplineSet
Validated: 1
EndChar

StartChar: Zeta
Encoding: 918 918 94
Width: 599
VWidth: 1365
Flags: HW
LayerCount: 2
Fore
SplineSet
480 800 m 1
 480 661 l 1
 100 100 l 1
 480 100 l 1
 480 0 l 1
 0 0 l 1
 0 139 l 1
 385 700 l 1
 0 700 l 1
 0 800 l 1
 480 800 l 1
EndSplineSet
Validated: 1
EndChar

StartChar: Eta
Encoding: 919 919 95
Width: 599
VWidth: 1365
Flags: HW
LayerCount: 2
Fore
SplineSet
100 800 m 1
 100 500 l 1
 380 500 l 1
 380 800 l 1
 480 800 l 1
 480 0 l 1
 380 0 l 1
 380 400 l 1
 100 400 l 1
 100 0 l 1
 0 0 l 1
 0 800 l 1
 100 800 l 1
EndSplineSet
Validated: 1
EndChar

StartChar: Theta
Encoding: 920 920 96
Width: 599
VWidth: 1365
Flags: HW
LayerCount: 2
Fore
SplineSet
100 350 m 1
 100 240 l 2
 100 201.333333333 113.666666667 168.333333333 141 141 c 128
 168.333333333 113.666666667 201.333333333 100 240 100 c 256
 278.666666667 100 311.666666667 113.666666667 339 141 c 128
 366.333333333 168.333333333 380 201.333333333 380 240 c 2
 380 350 l 1
 100 350 l 1
380 450 m 1
 380 560 l 2
 380 598.666666667 366.333333333 631.666666667 339 659 c 128
 311.666666667 686.333333333 278.666666667 700 240 700 c 256
 201.333333333 700 168.333333333 686.333333333 141 659 c 128
 113.666666667 631.666666667 100 598.666666667 100 560 c 2
 100 450 l 1
 380 450 l 1
0 560 m 2
 0 626 23.5 682.5 70.5 729.5 c 128
 117.5 776.5 174 800 240 800 c 256
 306 800 362.5 776.5 409.5 729.5 c 128
 456.5 682.5 480 626 480 560 c 2
 480 240 l 2
 480 174 456.5 117.5 409.5 70.5 c 128
 362.5 23.5 306 0 240 0 c 256
 174 0 117.5 23.5 70.5 70.5 c 128
 23.5 117.5 0 174 0 240 c 2
 0 560 l 2
EndSplineSet
Validated: 1
EndChar

StartChar: Iota
Encoding: 921 921 97
Width: 219
VWidth: 1365
Flags: HW
LayerCount: 2
Fore
SplineSet
0 800 m 1
 100 800 l 1
 100 0 l 1
 0 0 l 1
 0 800 l 1
EndSplineSet
Validated: 1
EndChar

StartChar: Kappa
Encoding: 922 922 98
Width: 599
VWidth: 1365
Flags: HW
LayerCount: 2
Fore
SplineSet
100 800 m 1
 100 439 l 1
 357 800 l 1
 480 800 l 1
 290 533 l 1
 480 0 l 1
 374 0 l 1
 219 434 l 1
 100 267 l 1
 100 0 l 1
 0 0 l 1
 0 800 l 1
 100 800 l 1
EndSplineSet
Validated: 1
EndChar

StartChar: Lambda
Encoding: 923 923 99
Width: 939
VWidth: 1365
Flags: HW
LayerCount: 2
Fore
SplineSet
820 0 m 1
 707 0 l 1
 410 581 l 1
 111 0 l 1
 0 0 l 1
 410 800 l 1
 820 0 l 1
EndSplineSet
Validated: 1
EndChar

StartChar: Mu
Encoding: 924 924 100
Width: 839
VWidth: 1365
Flags: HW
LayerCount: 2
Fore
SplineSet
100 800 m 1
 360 400 l 1
 620 800 l 1
 720 800 l 1
 720 0 l 1
 620 0 l 1
 620 617 l 1
 360 217 l 1
 100 617 l 1
 100 0 l 1
 0 0 l 1
 0 800 l 1
 100 800 l 1
EndSplineSet
Validated: 1
EndChar

StartChar: Nu
Encoding: 925 925 101
Width: 599
VWidth: 1365
Flags: HW
LayerCount: 2
Fore
SplineSet
480 800 m 1
 480 1 l 1
 370 0 l 1
 100 584 l 1
 100 0 l 1
 0 0 l 1
 0 800 l 1
 103 800 l 1
 380 216 l 1
 380 800 l 1
 480 800 l 1
EndSplineSet
Validated: 1
EndChar

StartChar: Xi
Encoding: 926 926 102
Width: 599
VWidth: 1365
Flags: HW
LayerCount: 2
Fore
SplineSet
0 800 m 1
 480 800 l 1
 480 650 l 1
 380 650 l 1
 380 700 l 1
 100 700 l 1
 100 650 l 1
 0 650 l 1
 0 800 l 1
380 450 m 1
 380 350 l 1
 100 350 l 1
 100 450 l 1
 380 450 l 1
100 150 m 1
 100 100 l 1
 380 100 l 1
 380 150 l 1
 480 150 l 1
 480 0 l 1
 0 0 l 1
 0 150 l 1
 100 150 l 1
EndSplineSet
Validated: 1
EndChar

StartChar: Omicron
Encoding: 927 927 103
Width: 599
VWidth: 1365
Flags: HW
LayerCount: 2
Fore
SplineSet
240 800 m 256
 306 800 362.5 776.5 409.5 729.5 c 128
 456.5 682.5 480 626 480 560 c 2
 480 240 l 2
 480 174 456.5 117.5 409.5 70.5 c 128
 362.5 23.5 306 0 240 0 c 256
 174 0 117.5 23.5 70.5 70.5 c 128
 23.5 117.5 0 174 0 240 c 2
 0 560 l 2
 0 626 23.5 682.5 70.5 729.5 c 128
 117.5 776.5 174 800 240 800 c 256
100 560 m 2
 100 240 l 2
 100 201.333333333 113.666666667 168.333333333 141 141 c 128
 168.333333333 113.666666667 201.333333333 100 240 100 c 256
 278.666666667 100 311.666666667 113.666666667 339 141 c 128
 366.333333333 168.333333333 380 201.333333333 380 240 c 2
 380 560 l 2
 380 598.666666667 366.333333333 631.666666667 339 659 c 128
 311.666666667 686.333333333 278.666666667 700 240 700 c 256
 201.333333333 700 168.333333333 686.333333333 141 659 c 128
 113.666666667 631.666666667 100 598.666666667 100 560 c 2
EndSplineSet
Validated: 1
EndChar

StartChar: Pi
Encoding: 928 928 104
Width: 599
VWidth: 1365
Flags: HW
LayerCount: 2
Fore
SplineSet
480 800 m 1
 480 0 l 1
 380 0 l 1
 380 700 l 1
 100 700 l 1
 100 0 l 1
 0 0 l 1
 0 800 l 1
 480 800 l 1
EndSplineSet
Validated: 1
EndChar

StartChar: Rho
Encoding: 929 929 105
Width: 599
VWidth: 1365
Flags: HW
LayerCount: 2
Fore
SplineSet
240 800 m 2
 306 800 362.5 776.5 409.5 729.5 c 128
 456.5 682.5 480 626 480 560 c 2
 480 540 l 2
 480 474 456.5 417.5 409.5 370.5 c 128
 362.5 323.5 306 300 240 300 c 2
 100 300 l 1
 100 0 l 1
 0 0 l 1
 0 800 l 1
 240 800 l 2
100 700 m 1
 100 400 l 1
 240 400 l 2
 278.666666667 400 311.666666667 413.666666667 339 441 c 128
 366.333333333 468.333333333 380 501.333333333 380 540 c 2
 380 560 l 2
 380 598.666666667 366.333333333 631.666666667 339 659 c 128
 311.666666667 686.333333333 278.666666667 700 240 700 c 2
 100 700 l 1
EndSplineSet
Validated: 1
EndChar

StartChar: Sigma
Encoding: 931 931 106
Width: 599
VWidth: 1365
Flags: HW
LayerCount: 2
Fore
SplineSet
480 800 m 1
 480 700 l 1
 117 700 l 1
 296 400 l 1
 117 100 l 1
 480 100 l 1
 480 0 l 1
 0 0 l 1
 0 100 l 1
 179 400 l 1
 0 700 l 1
 0 800 l 1
 480 800 l 1
EndSplineSet
Validated: 1
EndChar

StartChar: Tau
Encoding: 932 932 107
Width: 599
VWidth: 1365
Flags: HW
LayerCount: 2
Fore
SplineSet
480 800 m 1
 480 700 l 1
 290 700 l 1
 290 0 l 1
 190 0 l 1
 190 700 l 1
 0 700 l 1
 0 800 l 1
 480 800 l 1
EndSplineSet
Validated: 1
EndChar

StartChar: Upsilon
Encoding: 933 933 108
Width: 599
VWidth: 1365
Flags: HW
LayerCount: 2
Fore
SplineSet
106 800 m 1
 240 423 l 1
 374 800 l 1
 480 800 l 1
 290 267 l 1
 290 0 l 1
 190 0 l 1
 190 267 l 1
 0 800 l 1
 106 800 l 1
EndSplineSet
Validated: 1
EndChar

StartChar: Phi
Encoding: 934 934 109
Width: 839
VWidth: 1365
Flags: HW
LayerCount: 2
Fore
SplineSet
310 800 m 1
 410 800 l 1
 410 700 l 1
 480 700 l 2
 546 700 602.5 676.5 649.5 629.5 c 128
 696.5 582.5 720 526 720 460 c 2
 720 440 l 2
 720 374 696.5 317.5 649.5 270.5 c 128
 602.5 223.5 546 200 480 200 c 2
 410 200 l 1
 410 0 l 1
 310 0 l 1
 310 200 l 1
 240 200 l 2
 174 200 117.5 223.5 70.5 270.5 c 128
 23.5 317.5 0 374 0 440 c 2
 0 460 l 2
 0 526 23.5 582.5 70.5 629.5 c 128
 117.5 676.5 174 700 240 700 c 2
 310 700 l 1
 310 800 l 1
100 460 m 2
 100 440 l 2
 100 401.333333333 113.666666667 368.333333333 141 341 c 128
 168.333333333 313.666666667 201.333333333 300 240 300 c 2
 310 300 l 1
 310 600 l 1
 240 600 l 2
 201.333333333 600 168.333333333 586.333333333 141 559 c 128
 113.666666667 531.666666667 100 498.666666667 100 460 c 2
579 559 m 128
 551.666666667 586.333333333 518.666666667 600 480 600 c 2
 410 600 l 1
 410 300 l 1
 480 300 l 2
 518.666666667 300 551.666666667 313.666666667 579 341 c 128
 606.333333333 368.333333333 620 401.333333333 620 440 c 2
 620 460 l 2
 620 498.666666667 606.333333333 531.666666667 579 559 c 128
EndSplineSet
Validated: 1
EndChar

StartChar: Chi
Encoding: 935 935 110
Width: 599
VWidth: 1365
Flags: HW
LayerCount: 2
Fore
SplineSet
103 800 m 1
 240 519 l 1
 370 800 l 1
 480 800 l 1
 295 400 l 1
 480 0 l 1
 370 0 l 1
 240 281 l 1
 103 0 l 1
 0 0 l 1
 185 400 l 1
 2 800 l 1
 103 800 l 1
EndSplineSet
Validated: 1
EndChar

StartChar: Psi
Encoding: 936 936 111
Width: 939
VWidth: 1365
Flags: HW
LayerCount: 2
Fore
SplineSet
130 746 m 128
 166 710 184 666.666666667 184 616 c 2
 184 540 l 2
 184 501.333333333 197.666666667 468.333333333 225 441 c 128
 252.333333333 413.666666667 285.333333333 400 324 400 c 2
 360 400 l 1
 360 800 l 1
 460 800 l 1
 460 400 l 1
 496 400 l 2
 534.666666667 400 567.666666667 413.666666667 595 441 c 128
 622.333333333 468.333333333 636 501.333333333 636 540 c 2
 636 616 l 2
 636 666.666666667 654 710 690 746 c 128
 726 782 769.333333333 800 820 800 c 1
 820 700 l 1
 796.666666667 700 776.833333333 691.833333333 760.5 675.5 c 128
 744.166666667 659.166666667 736 639.333333333 736 616 c 2
 736 540 l 2
 736 474 709 417.5 655 370.5 c 128
 601 323.5 548 300 496 300 c 2
 460 300 l 1
 460 0 l 1
 360 0 l 1
 360 300 l 1
 324 300 l 2
 258 300 201.5 323.5 154.5 370.5 c 128
 107.5 417.5 84 474 84 540 c 2
 84 616 l 2
 84 639.333333333 75.8333333333 659.166666667 59.5 675.5 c 128
 43.1666666667 691.833333333 23.3333333333 700 0 700 c 1
 0 800 l 1
 50.6666666667 800 94 782 130 746 c 128
EndSplineSet
Validated: 1
EndChar

StartChar: uni03A9
Encoding: 937 937 112
Width: 939
VWidth: 1365
Flags: HW
LayerCount: 2
Fore
SplineSet
410 800 m 256
 490 800 558.333333333 771.666666667 615 715 c 128
 671.666666667 658.333333333 700 590 700 510 c 128
 700 430 684.166666667 374.166666667 652.5 342.5 c 128
 620.833333333 310.833333333 601.333333333 292 594 286 c 1
 594 100 l 1
 820 100 l 1
 820 0 l 1
 494 0 l 1
 494 339 l 1
 522 353 l 1
 574 405 600 457.333333333 600 510 c 128
 600 562.666666667 581.5 607.5 544.5 644.5 c 128
 507.5 681.5 462.666666667 700 410 700 c 0
 358.666666667 700 314.166666667 681.5 276.5 644.5 c 128
 238.833333333 607.5 220 562.666666667 220 510 c 128
 220 457.333333333 246 405 298 353 c 1
 326 339 l 1
 326 0 l 1
 0 0 l 1
 0 100 l 1
 226 100 l 1
 226 286 l 1
 215 295 l 1
 150.333333333 359 118.333333333 430.833333333 119 510.5 c 128
 119.666666667 590.166666667 148.333333333 658.333333333 205 715 c 128
 261.666666667 771.666666667 330 800 410 800 c 256
EndSplineSet
Validated: 33
EndChar

StartChar: "+AMAA"
Encoding: 1040 1040 113
Width: 599
VWidth: 1365
Flags: HW
LayerCount: 2
Fore
SplineSet
190 800 m 1
 290 800 l 1
 480 0 l 1
 377 0 l 1
 337 167 l 1
 143 167 l 1
 103 0 l 1
 0 0 l 1
 190 800 l 1
166 267 m 1
 314 267 l 1
 240 578 l 1
 166 267 l 1
EndSplineSet
Validated: 513
EndChar

StartChar: "+AMEA"
Encoding: 1041 1041 114
Width: 599
VWidth: 1365
Flags: HW
LayerCount: 2
Fore
SplineSet
430 800 m 1
 430 700 l 1
 100 700 l 1
 100 500 l 1
 240 500 l 2
 306 500 362.5 476.5 409.5 429.5 c 128
 456.5 382.5 480 326 480 260 c 2
 480 240 l 2
 480 174 456.5 117.5 409.5 70.5 c 128
 362.5 23.5 306 0 240 0 c 2
 0 0 l 1
 0 800 l 1
 430 800 l 1
100 400 m 1
 100 100 l 1
 240 100 l 2
 278.666666667 100 311.666666667 113.666666667 339 141 c 128
 366.333333333 168.333333333 380 201.333333333 380 240 c 2
 380 260 l 2
 380 298.666666667 366.333333333 331.666666667 339 359 c 128
 311.666666667 386.333333333 278.666666667 400 240 400 c 2
 100 400 l 1
EndSplineSet
Validated: 513
EndChar

StartChar: "+AMIA"
Encoding: 1042 1042 115
Width: 599
VWidth: 1365
Flags: HW
LayerCount: 2
Fore
SplineSet
0 800 m 1
 280 800 l 2
 335.333333333 800 382.5 780.333333333 421.5 741 c 128
 460.5 701.666666667 480 654.666666667 480 600 c 256
 480 544.666666667 453.666666667 490.666666667 401 438 c 1
 453.666666667 385.333333333 480 326 480 260 c 2
 480 240 l 2
 480 174 456.5 117.5 409.5 70.5 c 128
 362.5 23.5 306 0 240 0 c 2
 0 0 l 1
 0 800 l 1
100 700 m 1
 100 500 l 1
 280 500 l 2
 307.333333333 500 330.833333333 509.833333333 350.5 529.5 c 128
 370.166666667 549.166666667 380 572.666666667 380 600 c 128
 380 627.333333333 370.166666667 650.833333333 350.5 670.5 c 128
 330.833333333 690.166666667 307.333333333 700 280 700 c 2
 100 700 l 1
100 400 m 1
 100 100 l 1
 240 100 l 2
 278.666666667 100 311.666666667 113.666666667 339 141 c 128
 366.333333333 168.333333333 380 201.333333333 380 240 c 2
 380 260 l 2
 380 298.666666667 366.333333333 331.666666667 339 359 c 128
 311.666666667 386.333333333 278.666666667 400 240 400 c 2
 100 400 l 1
EndSplineSet
Validated: 513
EndChar

StartChar: "+AMMA"
Encoding: 1043 1043 116
Width: 599
VWidth: 1365
Flags: HW
LayerCount: 2
Fore
SplineSet
480 800 m 1
 480 700 l 1
 100 700 l 1
 100 0 l 1
 0 0 l 1
 0 800 l 1
 480 800 l 1
EndSplineSet
Validated: 513
EndChar

StartChar: "+AMQA"
Encoding: 1044 1044 117
Width: 839
VWidth: 1365
Flags: HW
LayerCount: 2
Fore
SplineSet
380 800 m 2
 620 800 l 1
 620 100 l 1
 720 100 l 1
 720 -100 l 1
 620 -100 l 1
 620 0 l 1
 100 0 l 1
 98 -100 l 1
 0 -100 l 1
 0 100 l 1
 100 100 l 1
 240 689 l 2
 257.333333333 763 304 800 380 800 c 2
203 100 m 1
 520 100 l 1
 520 700 l 1
 380 700 l 2
 356.666666667 700 342.333333333 688.666666667 337 666 c 2
 203 100 l 1
EndSplineSet
Validated: 513
EndChar

StartChar: "+AMUA"
Encoding: 1045 1045 118
Width: 599
VWidth: 1365
Flags: HW
LayerCount: 2
Fore
SplineSet
430 800 m 1
 430 700 l 1
 100 700 l 1
 100 500 l 1
 380 500 l 1
 380 400 l 1
 100 400 l 1
 100 100 l 1
 480 100 l 1
 480 0 l 1
 0 0 l 1
 0 800 l 1
 430 800 l 1
EndSplineSet
Validated: 513
EndChar

StartChar: "+AMYA"
Encoding: 1046 1046 119
Width: 839
VWidth: 1365
Flags: HW
LayerCount: 2
Fore
SplineSet
112 800 m 1
 263 500 l 1
 310 500 l 1
 310 800 l 1
 409 800 l 1
 409 500 l 1
 457 500 l 1
 608 800 l 1
 720 800 l 1
 544 450 l 1
 720 0 l 1
 613 0 l 1
 456 400 l 1
 409 400 l 1
 409 0 l 1
 310 0 l 1
 310 400 l 1
 264 400 l 1
 107 0 l 1
 0 0 l 1
 176 450 l 1
 0 800 l 1
 112 800 l 1
EndSplineSet
Validated: 513
EndChar

StartChar: "+AMcA"
Encoding: 1047 1047 120
Width: 599
VWidth: 1365
Flags: HW
LayerCount: 2
Fore
SplineSet
409.5 729.5 m 128
 456.5 682.5 480 626 480 560 c 0
 480 502 455.333333333 448.666666667 406 400 c 1
 455.333333333 351.333333333 480 298 480 240 c 0
 480 174 456.5 117.5 409.5 70.5 c 128
 362.5 23.5 306 0 240 0 c 256
 174 0 117.5 23.5 70.5 70.5 c 128
 23.5 117.5 0 174 0 240 c 1
 100 240 l 1
 100 201.333333333 113.666666667 168.333333333 141 141 c 128
 168.333333333 113.666666667 201.333333333 100 240 100 c 128
 278.666666667 100 311.666666667 113.666666667 339 141 c 128
 366.333333333 168.333333333 380 201.333333333 380 240 c 0
 380 270 369.166666667 295.833333333 347.5 317.5 c 128
 325.833333333 339.166666667 300 350 270 350 c 2
 190 350 l 1
 190 450 l 1
 270 450 l 2
 300 450 325.833333333 460.833333333 347.5 482.5 c 128
 369.166666667 504.166666667 380 532.333333333 380 567 c 0
 380 601 366.333333333 631.666666667 339 659 c 128
 311.666666667 686.333333333 278.666666667 700 240 700 c 128
 201.333333333 700 168.333333333 686.333333333 141 659 c 128
 113.666666667 631.666666667 100 598.666666667 100 560 c 1
 0 560 l 1
 0 626 23.5 682.5 70.5 729.5 c 128
 117.5 776.5 174 800 240 800 c 256
 306 800 362.5 776.5 409.5 729.5 c 128
EndSplineSet
Validated: 513
EndChar

StartChar: "+AMgA"
Encoding: 1048 1048 121
Width: 599
VWidth: 1365
Flags: HW
LayerCount: 2
Fore
SplineSet
100 800 m 1
 100 216 l 1
 377 800 l 1
 480 800 l 1
 480 0 l 1
 380 0 l 1
 380 584 l 1
 110 0 l 1
 0 1 l 1
 0 800 l 1
 100 800 l 1
EndSplineSet
Validated: 513
EndChar

StartChar: "+AMkA"
Encoding: 1049 1049 122
Width: 599
VWidth: 1365
Flags: HW
LayerCount: 2
Fore
SplineSet
330 1000 m 1
 330 900 l 1
 150 900 l 1
 150 1000 l 1
 330 1000 l 1
100 800 m 1
 100 216 l 1
 377 800 l 1
 480 800 l 1
 480 0 l 1
 380 0 l 1
 380 584 l 1
 110 0 l 1
 0 1 l 1
 0 800 l 1
 100 800 l 1
EndSplineSet
Validated: 513
EndChar

StartChar: "+AMoA"
Encoding: 1050 1050 123
Width: 599
VWidth: 1365
Flags: HW
LayerCount: 2
Fore
SplineSet
100 800 m 1
 100 439 l 1
 357 800 l 1
 480 800 l 1
 290 533 l 1
 480 0 l 1
 374 0 l 1
 219 434 l 1
 100 267 l 1
 100 0 l 1
 0 0 l 1
 0 800 l 1
 100 800 l 1
EndSplineSet
Validated: 513
EndChar

StartChar: "+AMsA"
Encoding: 1051 1051 124
Width: 599
VWidth: 1365
Flags: HW
LayerCount: 2
Fore
SplineSet
296 800 m 2
 480 800 l 1
 480 0 l 1
 380 0 l 1
 380 700 l 1
 296 700 l 2
 272 700 257.666666667 688.333333333 253 665 c 2
 141 115 l 2
 125 38.3333333333 78 0 0 0 c 1
 0 100 l 1
 24 100 38.3333333333 111.666666667 43 135 c 2
 158 684 l 1
 172 761.333333333 218 800 296 800 c 2
EndSplineSet
Validated: 513
EndChar

StartChar: "+AMwA"
Encoding: 1052 1052 125
Width: 839
VWidth: 1365
Flags: HW
LayerCount: 2
Fore
SplineSet
100 800 m 1
 360 400 l 1
 620 800 l 1
 720 800 l 1
 720 0 l 1
 620 0 l 1
 620 617 l 1
 360 217 l 1
 100 617 l 1
 100 0 l 1
 0 0 l 1
 0 800 l 1
 100 800 l 1
EndSplineSet
Validated: 513
EndChar

StartChar: "+AM0A"
Encoding: 1053 1053 126
Width: 599
VWidth: 1365
Flags: HW
LayerCount: 2
Fore
SplineSet
100 800 m 1
 100 500 l 1
 380 500 l 1
 380 800 l 1
 480 800 l 1
 480 0 l 1
 380 0 l 1
 380 400 l 1
 100 400 l 1
 100 0 l 1
 0 0 l 1
 0 800 l 1
 100 800 l 1
EndSplineSet
Validated: 513
EndChar

StartChar: "+AM4A"
Encoding: 1054 1054 127
Width: 599
VWidth: 1365
Flags: HW
LayerCount: 2
Fore
SplineSet
240 800 m 256
 306 800 362.5 776.5 409.5 729.5 c 128
 456.5 682.5 480 626 480 560 c 2
 480 240 l 2
 480 174 456.5 117.5 409.5 70.5 c 128
 362.5 23.5 306 0 240 0 c 256
 174 0 117.5 23.5 70.5 70.5 c 128
 23.5 117.5 0 174 0 240 c 2
 0 560 l 2
 0 626 23.5 682.5 70.5 729.5 c 128
 117.5 776.5 174 800 240 800 c 256
100 560 m 2
 100 240 l 2
 100 201.333333333 113.666666667 168.333333333 141 141 c 128
 168.333333333 113.666666667 201.333333333 100 240 100 c 256
 278.666666667 100 311.666666667 113.666666667 339 141 c 128
 366.333333333 168.333333333 380 201.333333333 380 240 c 2
 380 560 l 2
 380 598.666666667 366.333333333 631.666666667 339 659 c 128
 311.666666667 686.333333333 278.666666667 700 240 700 c 256
 201.333333333 700 168.333333333 686.333333333 141 659 c 128
 113.666666667 631.666666667 100 598.666666667 100 560 c 2
EndSplineSet
Validated: 513
EndChar

StartChar: "+AM8A"
Encoding: 1055 1055 128
Width: 599
VWidth: 1365
Flags: HW
LayerCount: 2
Fore
SplineSet
480 800 m 1
 480 0 l 1
 380 0 l 1
 380 700 l 1
 100 700 l 1
 100 0 l 1
 0 0 l 1
 0 800 l 1
 480 800 l 1
EndSplineSet
Validated: 513
EndChar

StartChar: "+ANAA"
Encoding: 1056 1056 129
Width: 599
VWidth: 1365
Flags: HW
LayerCount: 2
Fore
SplineSet
240 800 m 2
 306 800 362.5 776.5 409.5 729.5 c 128
 456.5 682.5 480 626 480 560 c 2
 480 540 l 2
 480 474 456.5 417.5 409.5 370.5 c 128
 362.5 323.5 306 300 240 300 c 2
 100 300 l 1
 100 0 l 1
 0 0 l 1
 0 800 l 1
 240 800 l 2
100 700 m 1
 100 400 l 1
 240 400 l 2
 278.666666667 400 311.666666667 413.666666667 339 441 c 128
 366.333333333 468.333333333 380 501.333333333 380 540 c 2
 380 560 l 2
 380 598.666666667 366.333333333 631.666666667 339 659 c 128
 311.666666667 686.333333333 278.666666667 700 240 700 c 2
 100 700 l 1
EndSplineSet
Validated: 513
EndChar

StartChar: "+ANEA"
Encoding: 1057 1057 130
Width: 599
VWidth: 1365
Flags: HW
LayerCount: 2
Fore
SplineSet
480 240 m 1
 480 174 456.5 117.5 409.5 70.5 c 128
 362.5 23.5 306 0 240 0 c 256
 174 0 117.5 23.5 70.5 70.5 c 128
 23.5 117.5 0 174 0 240 c 2
 0 560 l 2
 0 626 23.5 682.5 70.5 729.5 c 128
 117.5 776.5 174 800 240 800 c 256
 306 800 362.5 776.5 409.5 729.5 c 128
 456.5 682.5 480 626 480 560 c 1
 380 560 l 1
 380 598.666666667 366.333333333 631.666666667 339 659 c 128
 311.666666667 686.333333333 278.666666667 700 240 700 c 256
 201.333333333 700 168.333333333 686.333333333 141 659 c 128
 113.666666667 631.666666667 100 598.666666667 100 560 c 2
 100 240 l 2
 100 201.333333333 113.666666667 168.333333333 141 141 c 128
 168.333333333 113.666666667 201.333333333 100 240 100 c 256
 278.666666667 100 311.666666667 113.666666667 339 141 c 128
 366.333333333 168.333333333 380 201.333333333 380 240 c 1
 480 240 l 1
EndSplineSet
Validated: 513
EndChar

StartChar: "+ANIA"
Encoding: 1058 1058 131
Width: 599
VWidth: 1365
Flags: HW
LayerCount: 2
Fore
SplineSet
480 800 m 1
 480 700 l 1
 290 700 l 1
 290 0 l 1
 190 0 l 1
 190 700 l 1
 0 700 l 1
 0 800 l 1
 480 800 l 1
EndSplineSet
Validated: 513
EndChar

StartChar: "+ANMA"
Encoding: 1059 1059 132
Width: 599
VWidth: 1365
Flags: HW
LayerCount: 2
Fore
SplineSet
101 800 m 1
 164 404 l 2
 165.333333333 394 169.833333333 385.333333333 177.5 378 c 128
 185.166666667 370.666666667 195 367 207 367 c 2
 276 367 l 1
 377 800 l 1
 480 800 l 1
 337 189 l 2
 325.666666667 143 299.833333333 100 259.5 60 c 128
 219.166666667 20 165.666666667 0 99 0 c 1
 100 99 l 1
 138 99.6666666667 169.166666667 111.666666667 193.5 135 c 128
 217.833333333 158.333333333 233 183.666666667 239 211 c 2
 253 267 l 1
 207 267 l 2
 167.666666667 267 135.5 279.5 110.5 304.5 c 128
 85.5 329.5 70.3333333333 357.333333333 65 388 c 2
 0 800 l 1
 101 800 l 1
EndSplineSet
Validated: 513
EndChar

StartChar: "+ANQA"
Encoding: 1060 1060 133
Width: 839
VWidth: 1365
Flags: HW
LayerCount: 2
Fore
SplineSet
310 800 m 1
 410 800 l 1
 410 700 l 1
 480 700 l 2
 546 700 602.5 676.5 649.5 629.5 c 128
 696.5 582.5 720 526 720 460 c 2
 720 440 l 2
 720 374 696.5 317.5 649.5 270.5 c 128
 602.5 223.5 546 200 480 200 c 2
 410 200 l 1
 410 0 l 1
 310 0 l 1
 310 200 l 1
 240 200 l 2
 174 200 117.5 223.5 70.5 270.5 c 128
 23.5 317.5 0 374 0 440 c 2
 0 460 l 2
 0 526 23.5 582.5 70.5 629.5 c 128
 117.5 676.5 174 700 240 700 c 2
 310 700 l 1
 310 800 l 1
100 460 m 2
 100 440 l 2
 100 401.333333333 113.666666667 368.333333333 141 341 c 128
 168.333333333 313.666666667 201.333333333 300 240 300 c 2
 310 300 l 1
 310 600 l 1
 240 600 l 2
 201.333333333 600 168.333333333 586.333333333 141 559 c 128
 113.666666667 531.666666667 100 498.666666667 100 460 c 2
579 559 m 128
 551.666666667 586.333333333 518.666666667 600 480 600 c 2
 410 600 l 1
 410 300 l 1
 480 300 l 2
 518.666666667 300 551.666666667 313.666666667 579 341 c 128
 606.333333333 368.333333333 620 401.333333333 620 440 c 2
 620 460 l 2
 620 498.666666667 606.333333333 531.666666667 579 559 c 128
EndSplineSet
Validated: 513
EndChar

StartChar: "+ANUA"
Encoding: 1061 1061 134
Width: 599
VWidth: 1365
Flags: HW
LayerCount: 2
Fore
SplineSet
103 800 m 1
 240 519 l 1
 370 800 l 1
 480 800 l 1
 295 400 l 1
 480 0 l 1
 370 0 l 1
 240 281 l 1
 103 0 l 1
 0 0 l 1
 185 400 l 1
 2 800 l 1
 103 800 l 1
EndSplineSet
Validated: 513
EndChar

StartChar: "+ANYA"
Encoding: 1062 1062 135
Width: 699
VWidth: 1365
Flags: HW
LayerCount: 2
Fore
SplineSet
480 0 m 1
 0 0 l 1
 0 800 l 1
 100 800 l 1
 100 100 l 1
 380 100 l 1
 380 800 l 1
 480 800 l 1
 480 100 l 1
 580 100 l 1
 580 -100 l 1
 480 -100 l 1
 480 0 l 1
EndSplineSet
Validated: 513
EndChar

StartChar: "+ANcA"
Encoding: 1063 1063 136
Width: 599
VWidth: 1365
Flags: HW
LayerCount: 2
Fore
SplineSet
100 800 m 1
 100 540 l 2
 100 501.333333333 113.666666667 468.333333333 141 441 c 128
 168.333333333 413.666666667 201.333333333 400 240 400 c 2
 380 400 l 1
 380 800 l 1
 480 800 l 1
 480 0 l 1
 380 0 l 1
 380 300 l 1
 240 300 l 2
 174 300 117.5 323.5 70.5 370.5 c 128
 23.5 417.5 0 474 0 540 c 2
 0 800 l 1
 100 800 l 1
EndSplineSet
Validated: 513
EndChar

StartChar: "+ANgA"
Encoding: 1064 1064 137
Width: 839
VWidth: 1365
Flags: HW
LayerCount: 2
Fore
SplineSet
100 800 m 1
 100 100 l 1
 310 100 l 1
 310 800 l 1
 410 800 l 1
 410 100 l 1
 620 100 l 1
 620 800 l 1
 720 800 l 1
 720 0 l 1
 0 0 l 1
 0 800 l 1
 100 800 l 1
EndSplineSet
Validated: 513
EndChar

StartChar: "+ANkA"
Encoding: 1065 1065 138
Width: 939
VWidth: 1365
Flags: HW
LayerCount: 2
Fore
SplineSet
720 0 m 1
 0 0 l 1
 0 800 l 1
 100 800 l 1
 100 100 l 1
 310 100 l 1
 310 800 l 1
 410 800 l 1
 410 100 l 1
 620 100 l 1
 620 800 l 1
 720 800 l 1
 720 100 l 1
 820 100 l 1
 820 -100 l 1
 720 -100 l 1
 720 0 l 1
EndSplineSet
Validated: 513
EndChar

StartChar: "+ANoA"
Encoding: 1066 1066 139
Width: 839
VWidth: 1365
Flags: HW
LayerCount: 2
Fore
SplineSet
240 0 m 1
 240 700 l 1
 0 700 l 1
 0 800 l 1
 340 800 l 1
 340 500 l 1
 480 500 l 2
 546 500 602.5 476.5 649.5 429.5 c 128
 696.5 382.5 720 326 720 260 c 2
 720 240 l 2
 720 174 696.5 117.5 649.5 70.5 c 128
 602.5 23.5 546 0 480 0 c 2
 240 0 l 1
480 100 m 2
 518.666666667 100 551.666666667 113.666666667 579 141 c 128
 606.333333333 168.333333333 620 201.333333333 620 240 c 2
 620 260 l 2
 620 298.666666667 606.333333333 331.666666667 579 359 c 128
 551.666666667 386.333333333 518.666666667 400 480 400 c 2
 340 400 l 1
 340 100 l 1
 480 100 l 2
EndSplineSet
Validated: 513
EndChar

StartChar: "+ANsA"
Encoding: 1067 1067 140
Width: 839
VWidth: 1365
Flags: HW
LayerCount: 2
Fore
SplineSet
620 800 m 1
 720 800 l 1
 720 0 l 1
 620 0 l 1
 620 800 l 1
0 0 m 1
 0 800 l 1
 100 800 l 1
 100 500 l 1
 240 500 l 2
 306 500 362.5 476.5 409.5 429.5 c 128
 456.5 382.5 480 326 480 260 c 2
 480 240 l 2
 480 174 456.5 117.5 409.5 70.5 c 128
 362.5 23.5 306 0 240 0 c 2
 0 0 l 1
240 100 m 2
 278.666666667 100 311.666666667 113.666666667 339 141 c 128
 366.333333333 168.333333333 380 201.333333333 380 240 c 2
 380 260 l 2
 380 298.666666667 366.333333333 331.666666667 339 359 c 128
 311.666666667 386.333333333 278.666666667 400 240 400 c 2
 100 400 l 1
 100 100 l 1
 240 100 l 2
EndSplineSet
Validated: 513
EndChar

StartChar: "+ANwA"
Encoding: 1068 1068 141
Width: 599
VWidth: 1365
Flags: HW
LayerCount: 2
Fore
SplineSet
0 0 m 1
 0 800 l 1
 100 800 l 1
 100 500 l 1
 240 500 l 2
 306 500 362.5 476.5 409.5 429.5 c 128
 456.5 382.5 480 326 480 260 c 2
 480 240 l 2
 480 174 456.5 117.5 409.5 70.5 c 128
 362.5 23.5 306 0 240 0 c 2
 0 0 l 1
240 100 m 2
 278.666666667 100 311.666666667 113.666666667 339 141 c 128
 366.333333333 168.333333333 380 201.333333333 380 240 c 2
 380 260 l 2
 380 298.666666667 366.333333333 331.666666667 339 359 c 128
 311.666666667 386.333333333 278.666666667 400 240 400 c 2
 100 400 l 1
 100 100 l 1
 240 100 l 2
EndSplineSet
Validated: 513
EndChar

StartChar: "+AN0A"
Encoding: 1069 1069 142
Width: 599
VWidth: 1365
Flags: HW
LayerCount: 2
Fore
SplineSet
380 500 m 1
 380 560 l 2
 380 598.666666667 366.333333333 631.666666667 339 659 c 128
 311.666666667 686.333333333 278.666666667 700 240 700 c 256
 201.333333333 700 168.333333333 686.333333333 141 659 c 128
 113.666666667 631.666666667 100 598.666666667 100 560 c 1
 0 560 l 1
 0 626 23.5 682.5 70.5 729.5 c 128
 117.5 776.5 174 800 240 800 c 256
 306 800 362.5 776.5 409.5 729.5 c 128
 456.5 682.5 480 626 480 560 c 2
 480 240 l 2
 480 174 456.5 117.5 409.5 70.5 c 128
 362.5 23.5 306 0 240 0 c 256
 174 0 117.5 23.5 70.5 70.5 c 128
 23.5 117.5 0 174 0 240 c 1
 100 240 l 1
 100 201.333333333 113.666666667 168.333333333 141 141 c 128
 168.333333333 113.666666667 201.333333333 100 240 100 c 256
 278.666666667 100 311.666666667 113.666666667 339 141 c 128
 366.333333333 168.333333333 380 201.333333333 380 240 c 2
 380 400 l 1
 190 400 l 1
 190 500 l 1
 380 500 l 1
EndSplineSet
Validated: 513
EndChar

StartChar: "+AN4A"
Encoding: 1070 1070 143
Width: 839
VWidth: 1365
Flags: HW
LayerCount: 2
Fore
SplineSet
340 560 m 2
 340 240 l 2
 340 201.333333333 353.666666667 168.333333333 381 141 c 128
 408.333333333 113.666666667 441.333333333 100 480 100 c 256
 518.666666667 100 551.666666667 113.666666667 579 141 c 128
 606.333333333 168.333333333 620 201.333333333 620 240 c 2
 620 560 l 2
 620 598.666666667 606.333333333 631.666666667 579 659 c 128
 551.666666667 686.333333333 518.666666667 700 480 700 c 256
 441.333333333 700 408.333333333 686.333333333 381 659 c 128
 353.666666667 631.666666667 340 598.666666667 340 560 c 2
100 400 m 1
 100 0 l 1
 0 0 l 1
 0 800 l 1
 100 800 l 1
 100 500 l 1
 240 500 l 1
 240 560 l 2
 240 626 263.5 682.5 310.5 729.5 c 128
 357.5 776.5 414 800 480 800 c 256
 546 800 602.5 776.5 649.5 729.5 c 128
 696.5 682.5 720 626 720 560 c 2
 720 240 l 2
 720 174 696.5 117.5 649.5 70.5 c 128
 602.5 23.5 546 0 480 0 c 256
 414 0 357.5 23.5 310.5 70.5 c 128
 263.5 117.5 240 174 240 240 c 2
 240 400 l 1
 100 400 l 1
EndSplineSet
Validated: 513
EndChar

StartChar: "+AN8A"
Encoding: 1071 1071 144
Width: 599
VWidth: 1365
Flags: HW
LayerCount: 2
Fore
SplineSet
240 700 m 2
 201.333333333 700 168.333333333 686.333333333 141 659 c 128
 113.666666667 631.666666667 100 598.666666667 100 560 c 2
 100 540 l 2
 100 501.333333333 113.666666667 468.333333333 141 441 c 128
 168.333333333 413.666666667 201.333333333 400 240 400 c 2
 380 400 l 1
 380 700 l 1
 240 700 l 2
143 320 m 1
 117 331.333333333 93 348.333333333 71 371 c 0
 23.6666666667 417.666666667 0 474 0 540 c 2
 0 560 l 2
 0 626 23.5 682.5 70.5 729.5 c 128
 117.5 776.5 174 800 240 800 c 2
 480 800 l 1
 480 0 l 1
 380 0 l 1
 380 300 l 1
 243 300 l 1
 109 0 l 1
 0 0 l 1
 143 320 l 1
EndSplineSet
Validated: 513
EndChar

StartChar: "+AOAA"
Encoding: 1072 1072 145
Width: 451
VWidth: 1365
Flags: HW
LayerCount: 2
Fore
SplineSet
165 533 m 0
 210.333333333 533 249 517 281 485 c 128
 313 453 329 414.333333333 329 369 c 2
 329 135 l 2
 329 117 331.833333333 105 337.5 99 c 128
 343.166666667 93 346.333333333 89.6666666667 347 89 c 2
 347 0 l 1
 324.333333333 6.66666666667 308 15 298 25 c 128
 288 35 281.666666667 42 279 46 c 1
 247 15.3333333333 208.333333333 0 163 0 c 256
 118.333333333 0 80 16 48 48 c 128
 16 80 0 119 0 165 c 0
 0 210.333333333 16 249 48 281 c 128
 80 313 119 329 165 329 c 2
 249 329 l 1
 249 369 l 2
 249 392.333333333 240.666666667 412.166666667 224 428.5 c 128
 207.333333333 444.833333333 187.333333333 453 164 453 c 128
 140.666666667 453 120.833333333 444.833333333 104.5 428.5 c 128
 88.1666666667 412.166666667 80 392.333333333 80 369 c 1
 0 369 l 1
 0 415 16 453.833333333 48 485.5 c 128
 80 517.166666667 119 533 165 533 c 0
104.5 224 m 128
 88.1666666667 207.333333333 80 187.333333333 80 164 c 128
 80 140.666666667 88.1666666667 120.833333333 104.5 104.5 c 128
 120.833333333 88.1666666667 140.666666667 80 164 80 c 128
 187.333333333 80 207.333333333 88.1666666667 224 104.5 c 128
 240.666666667 120.833333333 249 141 249 165 c 2
 249 249 l 1
 159 249 l 2
 139 249 120.833333333 240.666666667 104.5 224 c 128
EndSplineSet
Validated: 513
EndChar

StartChar: "+AOEA"
Encoding: 1073 1073 146
Width: 432
VWidth: 1365
Flags: HW
LayerCount: 2
Fore
SplineSet
242 800 m 1
 329 800 l 1
 321.666666667 772.666666667 304.833333333 745.833333333 278.5 719.5 c 128
 252.166666667 693.166666667 216.333333333 680 171 680 c 2
 165 680 l 2
 141.666666667 680 121.666666667 671.833333333 105 655.5 c 128
 88.3333333333 639.166666667 80 619 80 595 c 2
 80 516 l 1
 106 527.333333333 138 533 176 533 c 128
 214 533 249 517 281 485 c 128
 313 453 329 414.333333333 329 369 c 2
 329 165 l 2
 329 119 313 80 281 48 c 128
 249 16 210.333333333 0 165 0 c 0
 119 0 80 16 48 48 c 128
 16 80 0 119 0 165 c 2
 0 595 l 2
 0 641 16 680 48 712 c 128
 80 744 119 760 165 760 c 2
 171 760 l 2
 194.333333333 760 211.166666667 765.166666667 221.5 775.5 c 128
 231.833333333 785.833333333 238.666666667 794 242 800 c 1
80 369 m 2
 80 165 l 2
 80 141.666666667 88.1666666667 121.666666667 104.5 105 c 128
 120.833333333 88.3333333333 140.666666667 80 164 80 c 128
 187.333333333 80 207.333333333 88.1666666667 224 104.5 c 128
 240.666666667 120.833333333 249 141 249 165 c 2
 249 369 l 2
 249 392.333333333 240.666666667 412.166666667 224 428.5 c 128
 207.333333333 444.833333333 187.333333333 453 164 453 c 128
 140.666666667 453 120.833333333 444.833333333 104.5 428.5 c 128
 88.1666666667 412.166666667 80 392.333333333 80 369 c 2
EndSplineSet
Validated: 513
EndChar

StartChar: "+AOIA"
Encoding: 1074 1074 147
Width: 432
VWidth: 1365
Flags: HW
LayerCount: 2
Fore
SplineSet
165 800 m 0
 210.333333333 800 249 784 281 752 c 128
 313 720 329 681 329 635 c 0
 329 589.666666667 319.333333333 557.5 300 538.5 c 128
 280.666666667 519.5 267.666666667 507.333333333 261 502 c 1
 268.333333333 497.333333333 281.5 485.333333333 300.5 466 c 128
 319.5 446.666666667 329 414.333333333 329 369 c 2
 329 165 l 2
 329 119 313 80 281 48 c 128
 249 16 210.333333333 0 165 0 c 0
 119 0 80 16 48 48 c 128
 16 80 0 119 0 165 c 2
 0 635 l 2
 0 681 16 720 48 752 c 128
 80 784 119 800 165 800 c 0
104.5 695.5 m 128
 88.1666666667 679.166666667 80 659 80 635 c 2
 80 510 l 1
 196 557 l 2
 206.666666667 561.666666667 218.166666667 570.166666667 230.5 582.5 c 128
 242.833333333 594.833333333 249 612.666666667 249 636 c 128
 249 659.333333333 240.666666667 679.166666667 224 695.5 c 128
 207.333333333 711.833333333 187.666666667 720 165 720 c 0
 141 720 120.833333333 711.833333333 104.5 695.5 c 128
104.5 429.5 m 128
 88.1666666667 412.5 80 392.333333333 80 369 c 2
 80 165 l 2
 80 141.666666667 88.1666666667 121.666666667 104.5 105 c 128
 120.833333333 88.3333333333 141 80 165 80 c 0
 188.333333333 80 208.166666667 88.1666666667 224.5 104.5 c 128
 240.833333333 120.833333333 249 141 249 165 c 2
 249 369 l 2
 249 392.333333333 240.666666667 412.5 224 429.5 c 128
 207.333333333 446.5 187.666666667 455 165 455 c 0
 141 455 120.833333333 446.5 104.5 429.5 c 128
EndSplineSet
Validated: 513
EndChar

StartChar: "+AOMA"
Encoding: 1075 1075 148
Width: 432
VWidth: 1365
Flags: HW
LayerCount: 2
Fore
SplineSet
165 533 m 0
 200.333333333 533 230.833333333 520.333333333 256.5 495 c 128
 282.166666667 469.666666667 295 439 295 403 c 128
 295 367 286 340.166666667 268 322.5 c 128
 250 304.833333333 234.333333333 292.666666667 221 286 c 2
 127 240 l 2
 118.333333333 236 108.333333333 228.166666667 97 216.5 c 128
 85.6666666667 204.833333333 80 187.333333333 80 164 c 128
 80 140.666666667 88.1666666667 120.833333333 104.5 104.5 c 128
 120.833333333 88.1666666667 144.833333333 80 176.5 80 c 128
 208.166666667 80 228.166666667 88.1666666667 236.5 104.5 c 128
 244.833333333 120.833333333 249 141 249 165 c 1
 329 165 l 1
 329 119 313 80 281 48 c 128
 249 16 210.333333333 0 165 0 c 0
 119 0 80 16 48 48 c 128
 16 80 0 119 0 165 c 0
 0 210.333333333 11.1666666667 244.166666667 33.5 266.5 c 128
 55.8333333333 288.833333333 75.3333333333 304 92 312 c 2
 187 358 l 2
 191.666666667 360.666666667 197.5 365.5 204.5 372.5 c 128
 211.5 379.5 215 389.833333333 215 403.5 c 128
 215 417.166666667 210 428.833333333 200 438.5 c 128
 190 448.166666667 178 453 164 453 c 128
 150 453 138.166666667 448.166666667 128.5 438.5 c 128
 118.833333333 428.833333333 114 417 114 403 c 1
 34 403 l 1
 34 439 46.8333333333 469.666666667 72.5 495 c 128
 98.1666666667 520.333333333 129 533 165 533 c 0
EndSplineSet
Validated: 513
EndChar

StartChar: "+AOQA"
Encoding: 1076 1076 149
Width: 432
VWidth: 1365
Flags: HW
LayerCount: 2
Fore
SplineSet
80 369 m 2
 80 165 l 2
 80 141.666666667 88.1666666667 121.666666667 104.5 105 c 128
 120.833333333 88.3333333333 140.666666667 80 164 80 c 128
 187.333333333 80 207.333333333 88.1666666667 224 104.5 c 128
 240.666666667 120.833333333 249 141 249 165 c 2
 249 369 l 2
 249 392.333333333 240.666666667 412.166666667 224 428.5 c 128
 207.333333333 444.833333333 187.333333333 453 164 453 c 128
 140.666666667 453 120.833333333 444.833333333 104.5 428.5 c 128
 88.1666666667 412.166666667 80 392.333333333 80 369 c 2
48 752 m 1
 80 784 118.666666667 800 164 800 c 0
 210 800 249 784 281 752 c 128
 313 720 329 681 329 635 c 2
 329 165 l 2
 329 119 313 80 281 48 c 128
 249 16 210 0 164 0 c 0
 118.666666667 0 80 16 48 48 c 128
 16 80 0 119 0 165 c 2
 0 369 l 2
 0 415 16 453.833333333 48 485.5 c 128
 80 517.166666667 115 533 153 533 c 128
 191 533 223 527.333333333 249 516 c 1
 249 635 l 2
 249 658.333333333 240.666666667 678.333333333 224 695 c 128
 207.333333333 711.666666667 187.333333333 720 164 720 c 128
 140.666666667 720 121 711.666666667 105 695 c 1
 48 752 l 1
EndSplineSet
Validated: 513
EndChar

StartChar: "+AOUA"
Encoding: 1077 1077 150
Width: 432
VWidth: 1365
Flags: HW
LayerCount: 2
Fore
SplineSet
80 165 m 2
 80 141.666666667 88.1666666667 121.666666667 104.5 105 c 128
 120.833333333 88.3333333333 140.666666667 80 164 80 c 128
 187.333333333 80 207.333333333 88.1666666667 224 104.5 c 128
 240.666666667 120.833333333 249 141 249 165 c 1
 329 165 l 1
 329 119 313 80 281 48 c 128
 249 16 210 0 164 0 c 0
 118.666666667 0 80 16 48 48 c 128
 16 80 0 119 0 165 c 2
 0 369 l 2
 0 415 16 453.833333333 48 485.5 c 128
 80 517.166666667 118.666666667 533 164 533 c 0
 210 533 249 517 281 485 c 128
 313 453 329 414.333333333 329 369 c 2
 329 227 l 1
 80 227 l 1
 80 165 l 2
249 369 m 2
 249 392.333333333 240.666666667 412.166666667 224 428.5 c 128
 207.333333333 444.833333333 187.333333333 453 164 453 c 128
 140.666666667 453 120.833333333 444.833333333 104.5 428.5 c 128
 88.1666666667 412.166666667 80 392.333333333 80 369 c 2
 80 307 l 1
 249 307 l 1
 249 369 l 2
EndSplineSet
Validated: 513
EndChar

StartChar: "+AOYA"
Encoding: 1078 1078 151
Width: 592
VWidth: 1365
Flags: HW
LayerCount: 2
Fore
SplineSet
0 533 m 1
 92 533 l 1
 197 347 l 1
 205 347 l 1
 205 533 l 1
 285 533 l 1
 285 347 l 1
 291 347 l 1
 397 533 l 1
 489 533 l 1
 361 307 l 1
 489 0 l 1
 402 0 l 1
 291 267 l 1
 285 267 l 1
 285 0 l 1
 205 0 l 1
 205 267 l 1
 198 267 l 1
 87 0 l 1
 0 0 l 1
 128 307 l 1
 0 533 l 1
EndSplineSet
Validated: 513
EndChar

StartChar: "+AOcA"
Encoding: 1079 1079 152
Width: 432
VWidth: 1365
Flags: HW
LayerCount: 2
Fore
SplineSet
165 329 m 2
 181.666666667 329 196.166666667 335 208.5 347 c 128
 220.833333333 359 227 373.666666667 227 391 c 0
 227 409 221 423.833333333 209 435.5 c 128
 197 447.166666667 182.333333333 453 165 453 c 256
 147.666666667 453 132.833333333 447 120.5 435 c 128
 108.166666667 423 102 408.333333333 102 391 c 1
 23 391 l 1
 23 430.333333333 36.6666666667 463.833333333 64 491.5 c 128
 91.3333333333 519.166666667 125 533 165 533 c 256
 204.333333333 533 237.833333333 519.166666667 265.5 491.5 c 128
 293.166666667 463.833333333 307 430.333333333 307 391 c 0
 307 353 294 320.333333333 268 293 c 1
 272.666666667 289.666666667 277 285.666666667 281 281 c 0
 312.333333333 249 328.333333333 210.333333333 329 165 c 0
 329 119 313 80 281 48 c 128
 249 16 210.333333333 0 165 0 c 0
 119 0 80 16 48 48 c 128
 16 80 0 119 0 165 c 1
 79 165 l 1
 79 141.666666667 87.3333333333 121.666666667 104 105 c 128
 120.666666667 88.3333333333 141 80 165 80 c 0
 187.666666667 80 207.166666667 88.1666666667 223.5 104.5 c 128
 239.833333333 120.833333333 248 141 248 165 c 256
 248 188.333333333 239.833333333 208.166666667 223.5 224.5 c 128
 207.166666667 240.833333333 187.666666667 249 165 249 c 2
 125 249 l 1
 125 329 l 1
 165 329 l 2
EndSplineSet
Validated: 513
EndChar

StartChar: "+AOgA"
Encoding: 1080 1080 153
Width: 451
VWidth: 1365
Flags: HW
LayerCount: 2
Fore
SplineSet
297 34 m 0
 291.666666667 39.3333333333 287 44.6666666667 283 50 c 1
 282 49 282 49 281 48 c 0
 249 16 210 0 164 0 c 0
 118.666666667 0 80 16 48 48 c 128
 16 80 0 119 0 165 c 2
 0 533 l 1
 80 533 l 1
 80 165 l 2
 80 141.666666667 88.1666666667 121.666666667 104.5 105 c 128
 120.833333333 88.3333333333 140.666666667 80 164 80 c 128
 187.333333333 80 207.333333333 88.1666666667 224 104.5 c 128
 240.666666667 120.833333333 249 141 249 165 c 2
 249 533 l 1
 329 533 l 1
 329 151 l 2
 329 130.333333333 335 112.333333333 347 97 c 1
 347 0 l 1
 329 7.33333333333 312.333333333 18.6666666667 297 34 c 0
EndSplineSet
Validated: 513
EndChar

StartChar: "+AOkA"
Encoding: 1081 1081 154
Width: 451
VWidth: 1365
Flags: HW
LayerCount: 2
Fore
SplineSet
297 34 m 0
 291.666666667 39.3333333333 287 44.6666666667 283 50 c 1
 282 49 282 49 281 48 c 0
 249 16 210 0 164 0 c 0
 118.666666667 0 80 16 48 48 c 128
 16 80 0 119 0 165 c 2
 0 533 l 1
 80 533 l 1
 80 165 l 2
 80 141.666666667 88.1666666667 121.666666667 104.5 105 c 128
 120.833333333 88.3333333333 140.666666667 80 164 80 c 128
 187.333333333 80 207.333333333 88.1666666667 224 104.5 c 128
 240.666666667 120.833333333 249 141 249 165 c 2
 249 533 l 1
 329 533 l 1
 329 151 l 2
 329 130.333333333 335 112.333333333 347 97 c 1
 347 0 l 1
 329 7.33333333333 312.333333333 18.6666666667 297 34 c 0
120 613 m 1
 120 693 l 1
 209 693 l 1
 209 613 l 1
 120 613 l 1
EndSplineSet
Validated: 513
EndChar

StartChar: "+AOoA"
Encoding: 1082 1082 155
Width: 432
VWidth: 1365
Flags: HW
LayerCount: 2
Fore
SplineSet
80 533 m 1
 80 304 l 1
 233 533 l 1
 329 533 l 1
 222 373 l 1
 329 0 l 1
 245 0 l 1
 164 286 l 1
 80 160 l 1
 80 0 l 1
 0 0 l 1
 0 533 l 1
 80 533 l 1
EndSplineSet
Validated: 513
EndChar

StartChar: "+AOsA"
Encoding: 1083 1083 156
Width: 432
VWidth: 1365
Flags: HW
LayerCount: 2
Fore
SplineSet
201 533 m 2
 329 533 l 1
 329 0 l 1
 249 0 l 1
 249 453 l 1
 201 453 l 2
 185.666666667 453 172.5 447.666666667 161.5 437 c 128
 150.5 426.333333333 145 413 145 397 c 2
 145 136 l 2
 145 98 131.666666667 65.8333333333 105 39.5 c 128
 78.3333333333 13.1666666667 46.3333333333 0 9 0 c 2
 0 0 l 1
 0 80 l 1
 9 80 l 2
 24.3333333333 80 37.5 85.5 48.5 96.5 c 128
 59.5 107.5 65 120.666666667 65 136 c 2
 65 397 l 2
 65 435 78.1666666667 467.166666667 104.5 493.5 c 128
 130.833333333 519.833333333 163 533 201 533 c 2
EndSplineSet
Validated: 513
EndChar

StartChar: "+AOwA"
Encoding: 1084 1084 157
Width: 592
VWidth: 1365
Flags: HW
LayerCount: 2
Fore
SplineSet
92 533 m 1
 245 267 l 1
 397 533 l 1
 489 533 l 1
 489 0 l 1
 409 0 l 1
 409 379 l 1
 245 105 l 1
 80 379 l 1
 80 0 l 1
 0 0 l 1
 0 533 l 1
 92 533 l 1
EndSplineSet
Validated: 513
EndChar

StartChar: "+AO0A"
Encoding: 1085 1085 158
Width: 431
VWidth: 1365
Flags: HW
LayerCount: 2
Fore
SplineSet
80 267 m 1
 80 0 l 1
 0 0 l 1
 0 533 l 1
 80 533 l 1
 80 347 l 1
 248 347 l 1
 248 533 l 1
 328 533 l 1
 328 0 l 1
 248 0 l 1
 248 267 l 1
 80 267 l 1
EndSplineSet
Validated: 513
EndChar

StartChar: "+AO4A"
Encoding: 1086 1086 159
Width: 432
VWidth: 1365
Flags: HW
LayerCount: 2
Fore
SplineSet
80 165 m 2
 80 141.666666667 88.1666666667 121.666666667 104.5 105 c 128
 120.833333333 88.3333333333 140.666666667 80 164 80 c 128
 187.333333333 80 207.333333333 88.1666666667 224 104.5 c 128
 240.666666667 120.833333333 249 141 249 165 c 2
 249 369 l 2
 249 392.333333333 240.666666667 412.166666667 224 428.5 c 128
 207.333333333 444.833333333 187.333333333 453 164 453 c 128
 140.666666667 453 120.833333333 444.833333333 104.5 428.5 c 128
 88.1666666667 412.166666667 80 392.333333333 80 369 c 2
 80 165 l 2
329 165 m 2
 329 119 313 80 281 48 c 128
 249 16 210 0 164 0 c 0
 118.666666667 0 80 16 48 48 c 128
 16 80 0 119 0 165 c 2
 0 369 l 2
 0 415 16 453.833333333 48 485.5 c 128
 80 517.166666667 118.666666667 533 164 533 c 0
 210 533 249 517 281 485 c 128
 313 453 329 414.333333333 329 369 c 2
 329 165 l 2
EndSplineSet
Validated: 513
EndChar

StartChar: "+AO8A"
Encoding: 1087 1087 160
Width: 451
VWidth: 1365
Flags: HW
LayerCount: 2
Fore
SplineSet
51 499 m 0
 56.3333333333 493.666666667 61 488.333333333 65 483 c 1
 66 484 66 484 67 485 c 0
 99 517 137.666666667 533 183 533 c 0
 228.333333333 533 267 517 299 485 c 128
 331 453 347 414.333333333 347 369 c 2
 347 0 l 1
 267 0 l 1
 267 369 l 2
 267 392.333333333 258.833333333 412.166666667 242.5 428.5 c 128
 226.166666667 444.833333333 206.333333333 453 183 453 c 128
 159.666666667 453 139.833333333 444.833333333 123.5 428.5 c 128
 107.166666667 412.166666667 99 392.333333333 99 369 c 2
 99 0 l 1
 19 0 l 1
 19 383 l 2
 19 403.666666667 12.6666666667 421.333333333 0 436 c 1
 0 533 l 1
 18.6666666667 525.666666667 35.6666666667 514.333333333 51 499 c 0
EndSplineSet
Validated: 513
EndChar

StartChar: "+APAA"
Encoding: 1088 1088 161
Width: 432
VWidth: 1365
Flags: HW
LayerCount: 2
Fore
SplineSet
165 80 m 2
 188.333333333 80 208 88.3333333333 224 105 c 256
 240.666666667 121.666666667 249 141.666666667 249 165 c 2
 249 369 l 2
 249 392.333333333 240.666666667 412.333333333 224 429 c 256
 207.333333333 445.666666667 187.666666667 453.666666667 165 453 c 2
 80 453 l 1
 80 80 l 1
 165 80 l 2
165 533 m 2
 210.333333333 533 249 517 281 485 c 128
 313 453 329 414.333333333 329 369 c 2
 329 165 l 2
 329 119 313 80 281 48 c 128
 249 16 210.333333333 0 165 0 c 2
 80 0 l 1
 80 -267 l 1
 0 -267 l 1
 0 533 l 1
 165 533 l 2
EndSplineSet
Validated: 545
EndChar

StartChar: "+APEA"
Encoding: 1089 1089 162
Width: 432
VWidth: 1365
Flags: HW
LayerCount: 2
Fore
SplineSet
80 165 m 2
 80 141.666666667 88.1666666667 121.666666667 104.5 105 c 128
 120.833333333 88.3333333333 140.666666667 80 164 80 c 128
 187.333333333 80 207.333333333 88.1666666667 224 104.5 c 128
 240.666666667 120.833333333 249 141 249 165 c 1
 329 165 l 1
 329 119 313 80 281 48 c 128
 249 16 210 0 164 0 c 0
 118.666666667 0 80 16 48 48 c 128
 16 80 0 119 0 165 c 2
 0 369 l 2
 0 415 16 453.833333333 48 485.5 c 128
 80 517.166666667 118.666666667 533 164 533 c 0
 210 533 249 517 281 485 c 128
 313 453 329 414.333333333 329 369 c 1
 249 369 l 1
 249 392.333333333 240.666666667 412.166666667 224 428.5 c 128
 207.333333333 444.833333333 187.333333333 453 164 453 c 128
 140.666666667 453 120.833333333 444.833333333 104.5 428.5 c 128
 88.1666666667 412.166666667 80 392.333333333 80 369 c 2
 80 165 l 2
EndSplineSet
Validated: 513
EndChar

StartChar: "+APIA"
Encoding: 1090 1090 163
Width: 592
VWidth: 1365
Flags: HW
LayerCount: 2
Fore
SplineSet
489 397 m 2
 489 0 l 1
 409 0 l 1
 409 397 l 2
 409 412.333333333 403.5 425.5 392.5 436.5 c 128
 381.5 447.5 368.333333333 453 353 453 c 0
 337.666666667 453 324.5 447.666666667 313.5 437 c 128
 302.5 426.333333333 297 413 297 397 c 2
 297 0 l 1
 217 0 l 1
 217 397 l 2
 217 412.333333333 211.5 425.5 200.5 436.5 c 128
 189.5 447.5 176.333333333 453 161 453 c 0
 145.666666667 453 132.5 447.666666667 121.5 437 c 128
 110.5 426.333333333 105 413 105 397 c 2
 105 0 l 1
 25 0 l 1
 25 401 l 2
 25 416.333333333 19.3333333333 429.333333333 8 440 c 0
 6 442.666666667 3.33333333333 445 0 447 c 1
 0 533 l 1
 24.6666666667 527.666666667 46.3333333333 515.666666667 65 497 c 0
 65.6666666667 496.333333333 66 495.666666667 66 495 c 0
 92 520.333333333 123.666666667 533 161 533 c 0
 199 533 231 520 257 494 c 1
 283 520 315 533 353 533 c 256
 391 533 423.166666667 519.833333333 449.5 493.5 c 128
 475.833333333 467.166666667 489 435 489 397 c 2
EndSplineSet
Validated: 513
EndChar

StartChar: "+APMA"
Encoding: 1091 1091 164
Width: 432
VWidth: 1365
Flags: HW
LayerCount: 2
Fore
SplineSet
123 -1 m 1
 0 533 l 1
 82 533 l 1
 165 167 l 1
 247 533 l 1
 329 533 l 1
 175 -152 l 1
 170.333333333 -180.666666667 157.666666667 -205.666666667 137 -227 c 0
 110.333333333 -253.666666667 78 -267 40 -267 c 1
 40 -187 l 1
 55.3333333333 -187 68.3333333333 -181.333333333 79 -170 c 0
 87 -162 92.3333333333 -153 95 -143 c 2
 123 -1 l 1
EndSplineSet
Validated: 513
EndChar

StartChar: "+APQA"
Encoding: 1092 1092 165
Width: 592
VWidth: 1365
Flags: HW
LayerCount: 2
Fore
SplineSet
285 89 m 1
 297 83 310.333333333 80 325 80 c 0
 348.333333333 80 368.166666667 88.1666666667 384.5 104.5 c 128
 400.833333333 120.833333333 409 141 409 165 c 2
 409 289 l 2
 409 312.333333333 400.666666667 332.166666667 384 348.5 c 128
 367.333333333 364.833333333 347.666666667 373 325 373 c 0
 310.333333333 373 297 370 285 364 c 1
 285 89 l 1
205 363 m 1
 193 369.666666667 179.666666667 373 165 373 c 0
 141.666666667 373 121.666666667 364.833333333 105 348.5 c 128
 88.3333333333 332.166666667 80 312.333333333 80 289 c 2
 80 165 l 2
 80 141.666666667 88.1666666667 121.666666667 104.5 105 c 128
 120.833333333 88.3333333333 141 80 165 80 c 0
 179.666666667 80 193 83.3333333333 205 90 c 1
 205 363 l 1
205 5 m 1
 192.333333333 1.66666666667 178.666666667 0 164 0 c 0
 118.666666667 0 80 16 48 48 c 128
 16 80 0 119 0 165 c 2
 0 289 l 2
 0 335 16 373.833333333 48 405.5 c 128
 80 437.166666667 118.666666667 453 164 453 c 0
 178 453 191.666666667 451.666666667 205 449 c 1
 205 533 l 1
 285 533 l 1
 285 449 l 1
 297.666666667 452.333333333 311 453.666666667 325 453 c 0
 370.333333333 453 409 437 441 405 c 128
 473 373 489 334.333333333 489 289 c 2
 489 165 l 2
 489 119 473 80 441 48 c 128
 409 16 370.333333333 0 325 0 c 0
 311 0 297.666666667 1.66666666667 285 5 c 1
 285 -267 l 1
 205 -267 l 1
 205 5 l 1
EndSplineSet
Validated: 545
EndChar

StartChar: "+APUA"
Encoding: 1093 1093 166
Width: 432
VWidth: 1365
Flags: HW
LayerCount: 2
Fore
SplineSet
88 533 m 1
 165 364 l 1
 241 533 l 1
 329 533 l 1
 208 267 l 1
 329 0 l 1
 241 0 l 1
 165 169 l 1
 88 0 l 1
 0 0 l 1
 116 267 l 1
 0 533 l 1
 88 533 l 1
EndSplineSet
Validated: 513
EndChar

StartChar: "+APYA"
Encoding: 1094 1094 167
Width: 512
VWidth: 1365
Flags: HW
LayerCount: 2
Fore
SplineSet
289 17 m 0
 315 -9.66666666667 328 -41.6666666667 328 -79 c 1
 409 -80 l 1
 409 -20 388 31 346 73 c 0
 336 83 326 91.6666666667 316 99 c 1
 324.666666667 119.666666667 329 141.666666667 329 165 c 2
 329 533 l 1
 249 533 l 1
 249 165 l 2
 249 141.666666667 240.666666667 121.666666667 224 105 c 128
 207.333333333 88.3333333333 187.333333333 80 164 80 c 128
 140.666666667 80 120.833333333 88.1666666667 104.5 104.5 c 128
 88.1666666667 120.833333333 80 141 80 165 c 2
 80 533 l 1
 0 533 l 1
 0 165 l 2
 0 119 16 80 48 48 c 128
 80 16 118.666666667 0 164 0 c 0
 203.333333333 0 237.666666667 11.6666666667 267 35 c 1
 274.333333333 30.3333333333 281.666666667 24.3333333333 289 17 c 0
EndSplineSet
Validated: 521
EndChar

StartChar: "+APcA"
Encoding: 1095 1095 168
Width: 432
VWidth: 1365
Flags: HW
LayerCount: 2
Fore
SplineSet
80 533 m 1
 80 351 l 2
 80 327.666666667 88.3333333333 307.666666667 105 291 c 256
 121.666666667 274.333333333 141.333333333 266.333333333 164 267 c 2
 249 267 l 1
 249 533 l 1
 329 533 l 1
 329 0 l 1
 249 0 l 1
 249 187 l 1
 164 187 l 2
 118.666666667 187 80 203 48 235 c 128
 16 267 0 305.666666667 0 351 c 2
 0 533 l 1
 80 533 l 1
EndSplineSet
Validated: 545
EndChar

StartChar: "+APgA"
Encoding: 1096 1096 169
Width: 592
VWidth: 1365
Flags: HW
LayerCount: 2
Fore
SplineSet
0 136 m 2
 0 533 l 1
 80 533 l 1
 80 136 l 2
 80 120.666666667 85.5 107.5 96.5 96.5 c 128
 107.5 85.5 120.666666667 80 136 80 c 0
 151.333333333 80 164.5 85.5 175.5 96.5 c 128
 186.5 107.5 192 120.666666667 192 136 c 2
 192 533 l 1
 272 533 l 1
 272 136 l 2
 272 120.666666667 277.5 107.5 288.5 96.5 c 128
 299.5 85.5 312.666666667 80 328 80 c 0
 343.333333333 80 356.5 85.5 367.5 96.5 c 128
 378.5 107.5 384 120.666666667 384 136 c 2
 384 533 l 1
 464 533 l 1
 464 133 l 2
 464 117.666666667 469.666666667 104.333333333 481 93 c 0
 483 90.3333333333 485.666666667 88 489 86 c 1
 489 0 l 1
 464.333333333 5.33333333333 442.666666667 17.6666666667 424 37 c 0
 423 38 l 0
 397 12.6666666667 365.333333333 0 328 0 c 0
 290 0 258 13 232 39 c 1
 206 13 174 0 136 0 c 256
 98 0 65.8333333333 13.1666666667 39.5 39.5 c 128
 13.1666666667 65.8333333333 0 98 0 136 c 2
EndSplineSet
Validated: 513
EndChar

StartChar: "+APkA"
Encoding: 1097 1097 170
Width: 672
VWidth: 1365
Flags: HW
LayerCount: 2
Fore
SplineSet
0 136 m 2
 0 533 l 1
 80 533 l 1
 80 136 l 2
 80 120.666666667 85.5 107.5 96.5 96.5 c 128
 107.5 85.5 120.666666667 80 136 80 c 0
 151.333333333 80 164.5 85.5 175.5 96.5 c 128
 186.5 107.5 192 120.666666667 192 136 c 2
 192 533 l 1
 272 533 l 1
 272 136 l 2
 272 120.666666667 277.5 107.5 288.5 96.5 c 128
 299.5 85.5 312.666666667 80 328 80 c 256
 343.333333333 80 356.5 85.5 367.5 96.5 c 128
 378.5 107.5 384 120.666666667 384 136 c 2
 384 533 l 1
 464 533 l 1
 464 136 l 2
 464 126 463 116.666666667 461 108 c 1
 477 98.6666666667 492 87 506 73 c 0
 548 31 569 -20 569 -80 c 1
 488 -80 l 1
 488 -42 475 -9.66666666667 449 17 c 0
 441 25 432.333333333 32 423 38 c 1
 397 12.6666666667 365.333333333 0 328 0 c 0
 290 0 258 13 232 39 c 1
 206 13 174 0 136 0 c 256
 98 0 65.8333333333 13.1666666667 39.5 39.5 c 128
 13.1666666667 65.8333333333 0 98 0 136 c 2
EndSplineSet
Validated: 513
EndChar

StartChar: "+APoA"
Encoding: 1098 1098 171
Width: 512
VWidth: 1365
Flags: HW
LayerCount: 2
Fore
SplineSet
160 267 m 1
 160 80 l 1
 245 80 l 2
 268.333333333 80 288 88.3333333333 304 105 c 256
 320.666666667 121.666666667 329 141.666666667 329 165 c 2
 329 182 l 2
 329 205.333333333 320.666666667 225.333333333 304 242 c 256
 287.333333333 258.666666667 267.666666667 267 245 267 c 2
 160 267 l 1
160 347 m 1
 245 347 l 2
 290.333333333 347 329 331 361 299 c 128
 393 267 409 228 409 182 c 2
 409 165 l 2
 409 119 393 80 361 48 c 128
 329 16 290.333333333 0 245 0 c 2
 80 0 l 1
 80 453 l 1
 0 453 l 1
 0 533 l 1
 160 533 l 1
 160 347 l 1
EndSplineSet
Validated: 513
EndChar

StartChar: "+APsA"
Encoding: 1099 1099 172
Width: 592
VWidth: 1365
Flags: HW
LayerCount: 2
Fore
SplineSet
80 267 m 1
 80 80 l 1
 165 80 l 2
 188.333333333 80 208 88.3333333333 224 105 c 256
 240.666666667 121.666666667 249 141.666666667 249 165 c 2
 249 182 l 2
 249 205.333333333 240.666666667 225.333333333 224 242 c 256
 207.333333333 258.666666667 187.666666667 267 165 267 c 2
 80 267 l 1
0 0 m 1
 0 533 l 1
 80 533 l 1
 80 347 l 1
 165 347 l 2
 210.333333333 347 249 331 281 299 c 128
 313 267 329 228 329 182 c 2
 329 165 l 2
 329 119 313 80 281 48 c 128
 249 16 210.333333333 0 165 0 c 2
 0 0 l 1
409 0 m 1
 409 533 l 1
 489 533 l 1
 489 0 l 1
 409 0 l 1
EndSplineSet
Validated: 513
EndChar

StartChar: "+APwA"
Encoding: 1100 1100 173
Width: 432
VWidth: 1365
Flags: HW
LayerCount: 2
Fore
SplineSet
80 267 m 1
 80 80 l 1
 165 80 l 2
 188.333333333 80 208 88.3333333333 224 105 c 256
 240.666666667 121.666666667 249 141.666666667 249 165 c 2
 249 182 l 2
 249 205.333333333 240.666666667 225.333333333 224 242 c 256
 207.333333333 258.666666667 187.666666667 267 165 267 c 2
 80 267 l 1
0 0 m 1
 0 533 l 1
 80 533 l 1
 80 347 l 1
 165 347 l 2
 210.333333333 347 249 331 281 299 c 128
 313 267 329 228 329 182 c 2
 329 165 l 2
 329 119 313 80 281 48 c 128
 249 16 210.333333333 0 165 0 c 2
 0 0 l 1
EndSplineSet
Validated: 513
EndChar

StartChar: "+AP0A"
Encoding: 1101 1101 174
Width: 432
VWidth: 1365
Flags: HW
LayerCount: 2
Fore
SplineSet
249 307 m 1
 249 369 l 2
 249 392.333333333 240.666666667 412.166666667 224 428.5 c 128
 207.333333333 444.833333333 187.333333333 453 164 453 c 128
 140.666666667 453 120.833333333 444.833333333 104.5 428.5 c 128
 88.1666666667 412.166666667 80 392.333333333 80 369 c 1
 0 369 l 1
 0 415 16 453.833333333 48 485.5 c 128
 80 517.166666667 119 533 165 533 c 0
 210.333333333 533 249 517 281 485 c 128
 313 453 329 414.333333333 329 369 c 2
 329 165 l 2
 329 119 313 80 281 48 c 128
 249 16 210.333333333 0 165 0 c 0
 119 0 80 16 48 48 c 128
 16 80 0 119 0 165 c 1
 80 165 l 1
 80 141.666666667 88.1666666667 121.666666667 104.5 105 c 128
 120.833333333 88.3333333333 140.666666667 80 164 80 c 128
 187.333333333 80 207.333333333 88.1666666667 224 104.5 c 128
 240.666666667 120.833333333 249 141 249 165 c 2
 249 227 l 1
 125 227 l 1
 125 307 l 1
 249 307 l 1
EndSplineSet
Validated: 513
EndChar

StartChar: "+AP4A"
Encoding: 1102 1102 175
Width: 592
VWidth: 1365
Flags: HW
LayerCount: 2
Fore
SplineSet
240 165 m 2
 240 141.666666667 248.166666667 121.666666667 264.5 105 c 128
 280.833333333 88.3333333333 300.666666667 80 324 80 c 128
 347.333333333 80 367.333333333 88.1666666667 384 104.5 c 128
 400.666666667 120.833333333 409 141 409 165 c 2
 409 369 l 2
 409 392.333333333 400.666666667 412.166666667 384 428.5 c 128
 367.333333333 444.833333333 347.333333333 453 324 453 c 128
 300.666666667 453 280.833333333 444.833333333 264.5 428.5 c 128
 248.166666667 412.166666667 240 392.333333333 240 369 c 2
 240 165 l 2
160 347 m 1
 160 369 l 2
 160 415 176 453.833333333 208 485.5 c 128
 240 517.166666667 278.666666667 533 324 533 c 0
 370 533 409 517 441 485 c 128
 473 453 489 414.333333333 489 369 c 2
 489 165 l 2
 489 119 473 80 441 48 c 128
 409 16 370 0 324 0 c 0
 278.666666667 0 240 16 208 48 c 128
 176 80 160 119 160 165 c 2
 160 267 l 1
 80 267 l 1
 80 0 l 1
 0 0 l 1
 0 533 l 1
 80 533 l 1
 80 347 l 1
 160 347 l 1
EndSplineSet
Validated: 513
EndChar

StartChar: "+AP8A"
Encoding: 1103 1103 176
Width: 432
VWidth: 1365
Flags: HW
LayerCount: 2
Fore
SplineSet
249 267 m 1
 249 453 l 1
 164 453 l 2
 140.666666667 453 121 445 105 429 c 256
 88.3333333333 412.333333333 80 392.333333333 80 369 c 2
 80 351 l 2
 80 327.666666667 88.3333333333 307.666666667 105 291 c 256
 121.666666667 274.333333333 141.333333333 266.333333333 164 267 c 2
 249 267 l 1
95 201 m 1
 78.3333333333 209 62.6666666667 220.333333333 48 235 c 0
 16 267 0 305.666666667 0 351 c 2
 0 369 l 2
 0 415 16 453.833333333 48 485.5 c 128
 80 517.166666667 118.666666667 533 164 533 c 2
 329 533 l 1
 329 0 l 1
 249 0 l 1
 249 187 l 1
 176 187 l 1
 89 0 l 1
 0 0 l 1
 95 201 l 1
EndSplineSet
Validated: 545
EndChar

StartChar: "+ALgA"
Encoding: 1105 1105 177
Width: 432
VWidth: 1365
Flags: HW
LayerCount: 2
Fore
SplineSet
80 165 m 2
 80 141.666666667 88.1666666667 121.666666667 104.5 105 c 128
 120.833333333 88.3333333333 140.666666667 80 164 80 c 128
 187.333333333 80 207.333333333 88.1666666667 224 104.5 c 128
 240.666666667 120.833333333 249 141 249 165 c 1
 329 165 l 1
 329 119 313 80 281 48 c 128
 249 16 210 0 164 0 c 0
 118.666666667 0 80 16 48 48 c 128
 16 80 0 119 0 165 c 2
 0 369 l 2
 0 415 16 453.833333333 48 485.5 c 128
 80 517.166666667 118.666666667 533 164 533 c 0
 210 533 249 517 281 485 c 128
 313 453 329 414.333333333 329 369 c 2
 329 227 l 1
 80 227 l 1
 80 165 l 2
249 369 m 2
 249 392.333333333 240.666666667 412.166666667 224 428.5 c 128
 207.333333333 444.833333333 187.333333333 453 164 453 c 128
 140.666666667 453 120.833333333 444.833333333 104.5 428.5 c 128
 88.1666666667 412.166666667 80 392.333333333 80 369 c 2
 80 307 l 1
 249 307 l 1
 249 369 l 2
EndSplineSet
Validated: 513
EndChar
